<svg width="139" height="136" viewBox="0 0 139 136" fill="none" xmlns="http://www.w3.org/2000/svg">
<path fill-rule="evenodd" clip-rule="evenodd" d="M69.5927 135.2C87.8229 135.2 105.306 128.078 118.197 115.4C131.088 102.723 138.33 85.5286 138.33 67.6C138.33 49.6714 131.088 32.477 118.197 19.7996C105.306 7.12212 87.8229 0 69.5927 0C51.3624 0 33.8789 7.12212 20.9881 19.7996C8.0974 32.477 0.855469 49.6714 0.855469 67.6C0.855469 85.5286 8.0974 102.723 20.9881 115.4C33.8789 128.078 51.3624 135.2 69.5927 135.2ZM101.444 56.6741C103.009 55.0805 103.875 52.946 103.855 50.7304C103.836 48.5149 102.932 46.3955 101.339 44.8288C99.746 43.2621 97.591 42.3734 95.3382 42.3542C93.0854 42.3349 90.915 43.1866 89.2945 44.7258L61.0005 72.5517L49.8909 61.6259C48.2704 60.0866 46.1 59.2349 43.8471 59.2542C41.5943 59.2734 39.4393 60.1621 37.8462 61.7288C36.2532 63.2955 35.3495 65.4148 35.33 67.6304C35.3104 69.846 36.1764 71.9805 37.7416 73.5742L54.9259 90.4741C56.5371 92.0583 58.7222 92.9482 61.0005 92.9482C63.2788 92.9482 65.4639 92.0583 67.0752 90.4741L101.444 56.6741Z" fill="#87FDDD"/>
</svg>
