<svg width="21" height="20" viewBox="0 0 21 20" fill="none" xmlns="http://www.w3.org/2000/svg">
<path d="M10.9995 7.00031V19.0003M6.99945 15.0003C5.75241 15.0011 4.55007 14.5359 3.62834 13.696C2.7066 12.8561 2.13201 11.702 2.0173 10.4602C1.90259 9.21848 2.25605 7.97868 3.00832 6.98409C3.76059 5.98951 4.85736 5.31193 6.08345 5.08431C6.29881 3.93798 6.908 2.90295 7.80568 2.15821C8.70335 1.41347 9.83307 1.00586 10.9995 1.00586C12.1658 1.00586 13.2956 1.41347 14.1932 2.15821C15.0909 2.90295 15.7001 3.93798 15.9155 5.08431C17.1374 5.31656 18.2291 5.99578 18.9773 6.98942C19.7255 7.98307 20.0767 9.21986 19.9623 10.4584C19.8479 11.697 19.2761 12.8486 18.3585 13.6883C17.4409 14.5281 16.2433 14.9958 14.9995 15.0003H6.99945ZM7.99945 10.0003L10.9995 7.00031L7.99945 10.0003ZM10.9995 7.00031L13.9995 10.0003L10.9995 7.00031Z" stroke="#8551E6" stroke-width="2" stroke-linecap="round" stroke-linejoin="round"/>
</svg>
