<svg width="22" height="25" viewBox="0 0 22 25" fill="none" xmlns="http://www.w3.org/2000/svg">
<path d="M1 6H21M19.75 6L18.6662 21.1775C18.6214 21.8082 18.3391 22.3985 17.8764 22.8295C17.4137 23.2604 16.8048 23.5 16.1725 23.5H5.8275C5.19517 23.5 4.58633 23.2604 4.12361 22.8295C3.66088 22.3985 3.37864 21.8082 3.33375 21.1775L2.25 6H19.75ZM8.5 11V18.5V11ZM13.5 11V18.5V11ZM14.75 6V2.25C14.75 1.91848 14.6183 1.60054 14.3839 1.36612C14.1495 1.1317 13.8315 1 13.5 1H8.5C8.16848 1 7.85054 1.1317 7.61612 1.36612C7.3817 1.60054 7.25 1.91848 7.25 2.25V6H14.75Z" stroke="#826CF7" stroke-width="2" stroke-linecap="round" stroke-linejoin="round"/>
</svg>
