<svg width="18" height="10" viewBox="0 0 18 10" fill="none" xmlns="http://www.w3.org/2000/svg">
<path fill-rule="evenodd" clip-rule="evenodd" d="M0.359375 1.4002C0.359375 1.08194 0.485803 0.776711 0.710847 0.551667C0.93589 0.326624 1.24112 0.200195 1.55937 0.200195H15.9594C16.2776 0.200195 16.5829 0.326624 16.8079 0.551667C17.0329 0.776711 17.1594 1.08194 17.1594 1.4002C17.1594 1.71846 17.0329 2.02368 16.8079 2.24872C16.5829 2.47377 16.2776 2.6002 15.9594 2.6002H1.55937C1.24112 2.6002 0.93589 2.47377 0.710847 2.24872C0.485803 2.02368 0.359375 1.71846 0.359375 1.4002ZM0.359375 8.6002C0.359375 8.28194 0.485803 7.97671 0.710847 7.75167C0.93589 7.52662 1.24112 7.4002 1.55937 7.4002H15.9594C16.2776 7.4002 16.5829 7.52662 16.8079 7.75167C17.0329 7.97671 17.1594 8.28194 17.1594 8.6002C17.1594 8.91846 17.0329 9.22368 16.8079 9.44872C16.5829 9.67377 16.2776 9.8002 15.9594 9.8002H1.55937C1.24112 9.8002 0.93589 9.67377 0.710847 9.44872C0.485803 9.22368 0.359375 8.91846 0.359375 8.6002Z" fill="#6549F6"/>
</svg>
