<svg width="18" height="10" viewBox="0 0 18 10" fill="none" xmlns="http://www.w3.org/2000/svg">
<path fill-rule="evenodd" clip-rule="evenodd" d="M0.757812 1.4002C0.757812 1.08194 0.884241 0.776711 1.10928 0.551667C1.33433 0.326624 1.63955 0.200195 1.95781 0.200195H16.3578C16.6761 0.200195 16.9813 0.326624 17.2063 0.551667C17.4314 0.776711 17.5578 1.08194 17.5578 1.4002C17.5578 1.71846 17.4314 2.02368 17.2063 2.24872C16.9813 2.47377 16.6761 2.6002 16.3578 2.6002H1.95781C1.63955 2.6002 1.33433 2.47377 1.10928 2.24872C0.884241 2.02368 0.757813 1.71846 0.757812 1.4002ZM0.757812 8.6002C0.757812 8.28194 0.884241 7.97671 1.10928 7.75167C1.33433 7.52662 1.63955 7.4002 1.95781 7.4002H16.3578C16.6761 7.4002 16.9813 7.52662 17.2063 7.75167C17.4314 7.97671 17.5578 8.28194 17.5578 8.6002C17.5578 8.91846 17.4314 9.22368 17.2063 9.44872C16.9813 9.67377 16.6761 9.8002 16.3578 9.8002H1.95781C1.63955 9.8002 1.33433 9.67377 1.10928 9.44872C0.884241 9.22368 0.757813 8.91846 0.757812 8.6002Z" fill="white"/>
</svg>
