<svg width="36" height="27" viewBox="0 0 36 27" fill="none" xmlns="http://www.w3.org/2000/svg">
<path d="M23.0295 13.7375C23.0295 15.0717 22.4995 16.3512 21.5562 17.2946C20.6128 18.238 19.3333 18.7679 17.9991 18.7679C16.665 18.7679 15.3855 18.238 14.4421 17.2946C13.4987 16.3512 12.9688 15.0717 12.9688 13.7375C12.9688 12.4034 13.4987 11.1239 14.4421 10.1805C15.3855 9.23714 16.665 8.70715 17.9991 8.70715C19.3333 8.70715 20.6128 9.23714 21.5562 10.1805C22.4995 11.1239 23.0295 12.4034 23.0295 13.7375V13.7375Z" stroke="#6549F6" stroke-width="3" stroke-linecap="round" stroke-linejoin="round"/>
<path d="M2 13.7376C4.13624 6.93481 10.493 2 18 2C25.5087 2 31.8638 6.93481 34 13.7376C31.8638 20.5403 25.5087 25.4752 18 25.4752C10.493 25.4752 4.13624 20.5403 2 13.7376V13.7376Z" stroke="#6549F6" stroke-width="3" stroke-linecap="round" stroke-linejoin="round"/>
</svg>
