<svg width="30" height="30" viewBox="0 0 30 30" fill="none" xmlns="http://www.w3.org/2000/svg">
<path d="M1 22L9.0255 13.9745C9.68185 13.3184 10.5719 12.9497 11.5 12.9497C12.4281 12.9497 13.3182 13.3184 13.9745 13.9745L22 22H1ZM18.5 18.5L21.2755 15.7245C21.9318 15.0684 22.8219 14.6997 23.75 14.6997C24.6781 14.6997 25.5682 15.0684 26.2245 15.7245L29 18.5H18.5ZM18.5 8H18.5175H18.5ZM4.5 29H25.5C26.4283 29 27.3185 28.6313 27.9749 27.9749C28.6313 27.3185 29 26.4283 29 25.5V4.5C29 3.57174 28.6313 2.6815 27.9749 2.02513C27.3185 1.36875 26.4283 1 25.5 1H4.5C3.57174 1 2.6815 1.36875 2.02513 2.02513C1.36875 2.6815 1 3.57174 1 4.5V25.5C1 26.4283 1.36875 27.3185 2.02513 27.9749C2.6815 28.6313 3.57174 29 4.5 29Z" stroke="#7B61FF" stroke-width="2" stroke-linecap="round" stroke-linejoin="round"/>
</svg>
