<svg width="42" height="42" viewBox="0 0 42 42" fill="none" xmlns="http://www.w3.org/2000/svg">
<path d="M19.7763 15.4121C19.5984 15.4123 19.4276 15.4814 19.2996 15.6048C19.1716 15.7283 19.0964 15.8966 19.0899 16.0743L19.021 17.9447L17.2105 17.4701C16.4469 17.2699 15.6611 17.1664 14.8717 17.1621C12.2312 17.1648 9.69958 18.2149 7.8324 20.0821C5.96425 21.9503 4.91402 24.4836 4.91241 27.1255C4.9129 32.6154 9.37452 36.9116 14.874 36.9121L19.7763 15.4121ZM19.7763 15.4121H22.8374H24.3374V13.9121V10.8496C24.3374 10.4705 24.6458 10.1621 25.0249 10.1621H28.0874H29.5874V8.66211V6.47461C29.5874 6.0602 29.752 5.66278 30.045 5.36975C30.3381 5.07673 30.7355 4.91211 31.1499 4.91211H35.5249C35.9393 4.91211 36.3367 5.07673 36.6298 5.36975C36.9228 5.66278 37.0874 6.06021 37.0874 6.47461V10.2756C37.0874 11.155 36.7382 11.9962 36.1173 12.6159L36.1161 12.6171L25.2066 23.5301L25.1927 23.544L25.1792 23.5582C24.9601 23.7891 24.7999 24.0695 24.7121 24.3755C24.6257 24.6768 24.6119 24.9943 24.6721 25.3019C24.7747 25.8483 24.83 26.4025 24.8374 26.9584C24.8332 29.5968 23.7833 32.1262 21.9174 33.9921C20.0493 35.8602 17.5162 36.9104 14.8744 36.9121L19.7763 15.4121Z" fill="white" stroke="#7B61FF" stroke-width="3"/>
<path d="M15.8924 20.0018C15.7323 19.9931 15.5721 20.016 15.4209 20.0691C15.2768 20.1173 15.1437 20.1935 15.0292 20.2933C14.9147 20.3931 14.8211 20.5146 14.7539 20.6507C14.6866 20.7869 14.6469 20.935 14.6372 21.0865C14.6275 21.238 14.6478 21.39 14.6971 21.5336L15.1854 22.9642L12.4235 23.8901L11.9687 22.5096C11.9205 22.3656 11.8443 22.2325 11.7444 22.1181C11.6445 22.0037 11.523 21.9102 11.3867 21.8429C11.2505 21.7757 11.1023 21.736 10.9507 21.7263C10.7991 21.7166 10.6471 21.737 10.5034 21.7862C9.89279 21.9898 9.55813 22.6426 9.76238 23.2502L10.2172 24.6134L8.78588 25.1019C8.17692 25.3061 7.85735 25.9745 8.06159 26.5831C8.10971 26.7272 8.1859 26.8603 8.28575 26.9748C8.3856 27.0892 8.50714 27.1828 8.64336 27.2501C8.77958 27.3174 8.92779 27.3571 9.07943 27.3669C9.23107 27.3766 9.38314 27.3563 9.52688 27.307L10.9582 26.8357L11.8846 29.5789L10.5034 30.0335C10.3593 30.0816 10.2262 30.1578 10.1117 30.2576C9.9972 30.3575 9.90362 30.479 9.83634 30.6151C9.76906 30.7512 9.72941 30.8993 9.71967 31.0509C9.70994 31.2024 9.73031 31.3544 9.77962 31.498C9.98333 32.1082 10.6365 32.4427 11.2444 32.2386L12.6083 31.784L13.0971 33.2145C13.3014 33.8232 13.9702 34.1426 14.5791 33.9384C14.7232 33.8903 14.8564 33.8142 14.971 33.7144C15.0855 33.6146 15.1791 33.4931 15.2465 33.357C15.3138 33.2208 15.3535 33.0727 15.3633 32.9212C15.3731 32.7696 15.3527 32.6176 15.3034 32.474L14.8319 31.0434L17.5765 30.1175L18.0313 31.498C18.0795 31.642 18.1557 31.775 18.2556 31.8895C18.3555 32.0039 18.477 32.0974 18.6133 32.1647C18.7495 32.2319 18.8977 32.2715 19.0493 32.2813C19.2009 32.291 19.3529 32.2706 19.4966 32.2213C20.1072 32.0177 20.4419 31.3649 20.2376 30.7574L19.7828 29.3936L21.2141 28.9056C21.8231 28.7015 22.1427 28.0331 21.9384 27.4244C21.8902 27.2804 21.814 27.1474 21.7141 27.033C21.6143 26.9185 21.4927 26.825 21.3565 26.7578C21.2203 26.6905 21.0721 26.6509 20.9205 26.6412C20.7689 26.6314 20.6168 26.6518 20.4731 26.7011L19.0418 27.1718L18.1154 24.4287L19.4966 23.9741C19.6407 23.9259 19.7738 23.8497 19.8883 23.7499C20.0028 23.6501 20.0964 23.5286 20.1637 23.3925C20.2309 23.2563 20.2706 23.1082 20.2803 22.9567C20.2901 22.8052 20.2697 22.6532 20.2204 22.5096C20.0167 21.9015 19.3635 21.5649 18.7556 21.769L17.3911 22.2236L16.9029 20.793C16.8309 20.5765 16.6967 20.3859 16.517 20.2452C16.3373 20.1045 16.12 20.0198 15.8924 20.0018ZM15.9097 25.1693L16.8355 27.913L14.0909 28.8383L13.1639 26.0951L15.9097 25.1693Z" fill="#7B61FF"/>
</svg>
