<svg width="36" height="36" viewBox="0 0 36 36" fill="none" xmlns="http://www.w3.org/2000/svg">
<path d="M28 21.5415V33.5415V21.5415ZM22 27.5415H34H22ZM6 13.5415H10C11.0609 13.5415 12.0783 13.1201 12.8284 12.3699C13.5786 11.6198 14 10.6024 14 9.5415V5.5415C14 4.48064 13.5786 3.46322 12.8284 2.71308C12.0783 1.96293 11.0609 1.5415 10 1.5415H6C4.93913 1.5415 3.92172 1.96293 3.17157 2.71308C2.42143 3.46322 2 4.48064 2 5.5415V9.5415C2 10.6024 2.42143 11.6198 3.17157 12.3699C3.92172 13.1201 4.93913 13.5415 6 13.5415ZM26 13.5415H30C31.0609 13.5415 32.0783 13.1201 32.8284 12.3699C33.5786 11.6198 34 10.6024 34 9.5415V5.5415C34 4.48064 33.5786 3.46322 32.8284 2.71308C32.0783 1.96293 31.0609 1.5415 30 1.5415H26C24.9391 1.5415 23.9217 1.96293 23.1716 2.71308C22.4214 3.46322 22 4.48064 22 5.5415V9.5415C22 10.6024 22.4214 11.6198 23.1716 12.3699C23.9217 13.1201 24.9391 13.5415 26 13.5415ZM6 33.5415H10C11.0609 33.5415 12.0783 33.1201 12.8284 32.3699C13.5786 31.6198 14 30.6024 14 29.5415V25.5415C14 24.4806 13.5786 23.4632 12.8284 22.7131C12.0783 21.9629 11.0609 21.5415 10 21.5415H6C4.93913 21.5415 3.92172 21.9629 3.17157 22.7131C2.42143 23.4632 2 24.4806 2 25.5415V29.5415C2 30.6024 2.42143 31.6198 3.17157 32.3699C3.92172 33.1201 4.93913 33.5415 6 33.5415Z" stroke="#7B61FF" stroke-width="3" stroke-linecap="round" stroke-linejoin="round"/>
</svg>
