<svg width="26" height="21" viewBox="0 0 26 21" fill="none" xmlns="http://www.w3.org/2000/svg">
<path fill-rule="evenodd" clip-rule="evenodd" d="M20.9333 1.12191C20.589 1.35841 20.5331 1.49029 20.5129 2.11453L20.4946 2.67964H18.9742C17.3257 2.67964 16.9617 2.71974 16.2908 2.97515C15.7461 3.18251 15.2164 3.53865 14.7808 3.99031C14.5708 4.20812 12.4225 6.83676 10.007 9.83168C7.59145 12.8266 5.4925 15.4215 5.34262 15.5983C5.19278 15.775 4.92699 16.013 4.75204 16.1273C4.21793 16.476 4.04491 16.5095 2.59104 16.5453C1.16749 16.5804 1.15815 16.5827 0.886135 16.9504C0.730934 17.1602 0.730934 17.6742 0.886135 17.8839C1.15724 18.2504 1.17694 18.2553 2.48367 18.2747C3.81793 18.2945 4.25594 18.2463 4.90268 18.0086C5.48654 17.794 6.02065 17.4417 6.47202 16.9734C6.68204 16.7556 8.87842 14.066 11.3528 10.9966C13.8272 7.92718 15.9771 5.29079 16.1302 5.13794C16.4369 4.83187 16.935 4.56697 17.3799 4.47334C17.546 4.43839 18.2551 4.41347 19.0844 4.41347H20.5044V4.92993C20.5044 5.24896 20.533 5.51553 20.5792 5.62715C20.7406 6.01715 21.2613 6.23708 21.6425 6.07626C21.7488 6.03151 22.4481 5.58066 23.1966 5.07438C24.6764 4.07348 24.7578 3.99388 24.7578 3.54656C24.7578 3.09132 24.6839 3.02012 23.1193 1.96753C21.7067 1.01718 21.6761 1 21.396 1C21.1886 1 21.0624 1.03327 20.9333 1.12191ZM1.25591 2.75588C0.752891 2.977 0.59463 3.66841 0.949536 4.09418C1.19466 4.38811 1.32452 4.41347 2.58674 4.41347C3.88123 4.41347 4.21761 4.47313 4.74597 4.79627C5.1442 5.03992 5.26547 5.17402 6.6779 6.93294C8.02446 8.60982 8.15368 8.72777 8.5816 8.67088C8.85136 8.63496 9.13927 8.43703 9.25759 8.20611C9.35932 8.00759 9.36066 7.62815 9.26038 7.43412C9.14082 7.20282 6.89876 4.43433 6.47138 3.99031C5.84741 3.34197 5.08472 2.92877 4.19308 2.75599C3.65887 2.65244 1.49137 2.65239 1.25591 2.75588ZM12.4196 12.3731C11.9897 12.5701 11.7948 13.1099 12.0069 13.5161C12.1683 13.8252 14.5533 16.7657 14.9339 17.125C15.3504 17.518 15.7925 17.7989 16.2972 17.991C16.9617 18.244 17.3286 18.2841 18.9791 18.2841H20.5044V18.8005C20.5044 19.1196 20.533 19.3861 20.5792 19.4978C20.7406 19.8878 21.2613 20.1077 21.6425 19.9469C21.7488 19.9021 22.4481 19.4513 23.1966 18.945C24.143 18.3049 24.588 17.9717 24.6576 17.8509C24.7959 17.6112 24.7897 17.2043 24.6441 16.9665C24.5084 16.745 21.9104 14.9647 21.5746 14.8631C21.2004 14.75 20.7659 14.9539 20.5917 15.3243C20.5299 15.4558 20.5044 15.6621 20.5044 16.0302V16.5503H19.0575C18.2177 16.5503 17.4913 16.5253 17.3262 16.4909C16.9927 16.4213 16.5195 16.1969 16.2396 15.9755C16.1307 15.8893 15.4277 15.0598 14.6775 14.1321C13.5256 12.7077 13.2797 12.4317 13.0963 12.3576C12.8188 12.2455 12.6915 12.2485 12.4196 12.3731Z" fill="white" stroke="white"/>
</svg>
