<svg width="33" height="41" viewBox="0 0 33 41" fill="none" xmlns="http://www.w3.org/2000/svg">
<path d="M16.9998 38.2516C24.3636 38.2516 30.3332 32.2821 30.3332 24.9183C30.3332 17.5545 24.3636 11.585 16.9998 11.585C9.63604 11.585 3.6665 17.5545 3.6665 24.9183C3.6665 32.2821 9.63604 38.2516 16.9998 38.2516Z" stroke="#7B61FF" stroke-width="3" stroke-linecap="round" stroke-linejoin="round"/>
<path d="M21 30.2513L17.7813 27.0326C17.2812 26.5327 17.0002 25.8545 17 25.1473V16.918" stroke="#7B61FF" stroke-width="3" stroke-linecap="round" stroke-linejoin="round"/>
<path fill-rule="evenodd" clip-rule="evenodd" d="M23.2 12.2676V8.50797C23.2 3.72792 20.9972 0.917969 16.6 0.917969C12.2011 0.917969 10 3.72792 10 8.50797V9.16797H13.3V7.84632C13.3 5.46207 14.6151 4.21797 16.6 4.21797C18.5849 4.21797 19.9 5.46207 19.9 7.84632V12.2676H23.2Z" fill="#7B61FF"/>
</svg>
