<svg width="121" height="121" viewBox="0 0 121 121" fill="none" xmlns="http://www.w3.org/2000/svg">
<circle cx="60.5" cy="60.5" r="60.5" fill="#F4EEFF"/>
<circle cx="60.5017" cy="60.5" r="50.8571" stroke="#7B61FF" stroke-width="2" stroke-dasharray="6 6"/>
<path d="M47 68L55.0255 59.9745C55.6818 59.3184 56.5719 58.9497 57.5 58.9497C58.4281 58.9497 59.3182 59.3184 59.9745 59.9745L68 68H47ZM64.5 64.5L67.2755 61.7245C67.9318 61.0684 68.8219 60.6997 69.75 60.6997C70.6781 60.6997 71.5682 61.0684 72.2245 61.7245L75 64.5H64.5ZM64.5 54H64.5175H64.5ZM50.5 75H71.5C72.4283 75 73.3185 74.6313 73.9749 73.9749C74.6313 73.3185 75 72.4283 75 71.5V50.5C75 49.5717 74.6313 48.6815 73.9749 48.0251C73.3185 47.3687 72.4283 47 71.5 47H50.5C49.5717 47 48.6815 47.3687 48.0251 48.0251C47.3687 48.6815 47 49.5717 47 50.5V71.5C47 72.4283 47.3687 73.3185 48.0251 73.9749C48.6815 74.6313 49.5717 75 50.5 75Z" stroke="#7B61FF" stroke-width="2" stroke-linecap="round" stroke-linejoin="round"/>
</svg>
