<?xml version="1.0" encoding="UTF-8"?>
<svg width="20" height="16" viewBox="0 0 20 16" fill="none" xmlns="http://www.w3.org/2000/svg">
<path d="M15.8677 0.504C15.7803 0.350946 15.6539 0.223719 15.5015 0.135211C15.3491 0.0467025 15.1759 5.68541e-05 14.9997 0H0.999677C0.824559 5.64741e-05 0.652526 0.0460983 0.500789 0.133519C0.349053 0.22094 0.222933 0.346674 0.135049 0.498143C0.0471648 0.649612 0.000597405 0.821504 5.70987e-06 0.996621C-0.000585986 1.17174 0.0448187 1.34394 0.131677 1.496L3.84868 8L0.131677 14.504C0.0448187 14.6561 -0.000585986 14.8283 5.70987e-06 15.0034C0.000597405 15.1785 0.0471648 15.3504 0.135049 15.5019C0.222933 15.6533 0.349053 15.7791 0.500789 15.8665C0.652526 15.9539 0.824559 15.9999 0.999677 16H14.9997C15.1759 15.9999 15.3491 15.9533 15.5015 15.8648C15.6539 15.7763 15.7803 15.6491 15.8677 15.496L19.8677 8.496C19.9542 8.345 19.9997 8.17401 19.9997 8C19.9997 7.82599 19.9542 7.655 19.8677 7.504L15.8677 0.504ZM14.4197 14H2.72368L5.86868 8.496C5.95516 8.345 6.00066 8.17401 6.00066 8C6.00066 7.82599 5.95516 7.655 5.86868 7.504L2.72368 2H14.4197L17.8487 8L14.4197 14Z" fill="#250C50"/>
</svg>