<?xml version="1.0" standalone="no"?>
<!DOCTYPE svg PUBLIC "-//W3C//DTD SVG 20010904//EN"
 "http://www.w3.org/TR/2001/REC-SVG-20010904/DTD/svg10.dtd">
<svg version="1.0" xmlns="http://www.w3.org/2000/svg"
 width="1602.000000pt" height="911.000000pt" viewBox="0 0 1602.000000 911.000000"
 preserveAspectRatio="xMidYMid meet">

<g transform="translate(0.000000,911.000000) scale(0.100000,-0.100000)"
fill="#000000" stroke="none">
<path d="M0 7689 l0 -1421 33 8 c17 4 118 7 223 6 151 -1 225 -6 355 -27 153
-24 304 -60 374 -90 61 -26 233 -76 330 -97 116 -25 323 -29 420 -9 164 34
269 93 353 197 26 32 34 54 39 98 8 76 -13 127 -84 202 -49 51 -175 144 -195
144 -4 0 -36 14 -71 30 -36 17 -70 30 -76 30 -7 0 -34 11 -61 25 -27 14 -55
25 -63 25 -29 0 -185 84 -286 154 -137 96 -213 188 -253 309 -35 107 -36 183
-3 281 14 41 41 101 60 134 59 99 211 245 330 318 17 10 46 30 65 44 19 15 82
51 140 80 112 56 112 56 206 93 l62 25 4 -97 c3 -53 3 -101 1 -107 -2 -5 -20
-16 -41 -24 -20 -7 -53 -23 -72 -35 -19 -12 -53 -29 -75 -37 -101 -40 -256
-149 -360 -253 -109 -110 -138 -166 -139 -270 -1 -65 3 -88 22 -125 43 -82
136 -165 272 -242 53 -30 230 -106 280 -120 51 -14 226 -104 285 -146 84 -60
108 -84 159 -156 111 -156 123 -291 41 -461 -26 -56 -47 -81 -100 -125 -112
-93 -246 -154 -405 -184 -161 -31 -473 -16 -609 28 -25 8 -73 24 -106 35 -33
11 -99 33 -146 50 -47 17 -117 37 -155 46 -218 48 -235 49 -479 50 -132 0
-248 -3 -257 -7 -17 -7 -18 -51 -18 -728 0 -396 4 -720 8 -720 5 0 50 9 101
20 50 11 149 25 219 31 111 10 135 10 190 -4 142 -37 246 -119 300 -234 23
-50 26 -70 25 -148 -1 -98 5 -81 -129 -335 -41 -79 -45 -168 -10 -237 53 -105
209 -209 350 -234 130 -22 282 6 434 82 51 25 65 29 77 19 8 -7 15 -16 15 -21
0 -5 19 -33 43 -63 23 -29 75 -95 115 -147 163 -210 246 -314 254 -317 4 -2 8
-8 8 -13 0 -6 9 -20 21 -32 12 -12 33 -38 47 -57 15 -19 55 -70 90 -113 61
-75 72 -107 37 -107 -24 0 -417 -203 -528 -273 -126 -78 -218 -162 -251 -229
-58 -116 -12 -235 107 -274 61 -20 218 -15 366 11 52 10 121 15 153 13 143
-10 229 -154 169 -283 -36 -77 -95 -115 -396 -253 -145 -67 -328 -167 -470
-257 -77 -48 -158 -99 -180 -112 -22 -14 -76 -47 -119 -75 -107 -68 -325 -179
-428 -217 -46 -17 -90 -35 -98 -40 -8 -4 -76 -23 -150 -40 -74 -18 -148 -36
-165 -41 -16 -5 -69 -11 -117 -15 l-88 -7 0 -40 0 -39 98 6 c53 4 111 11 127
15 17 5 79 18 140 29 60 12 111 25 113 31 2 5 12 10 21 10 20 0 213 71 233 86
7 5 29 17 48 26 118 55 148 68 156 68 6 0 25 13 44 30 19 16 40 29 46 30 6 0
17 7 24 15 7 8 20 15 30 15 9 0 25 9 34 19 15 16 192 138 301 207 84 53 185
107 441 234 154 77 301 156 325 174 24 19 60 61 79 93 32 53 35 63 35 138 -1
118 -44 187 -150 236 -70 34 -127 37 -258 14 -120 -21 -287 -32 -330 -22 -53
13 -97 66 -97 118 0 22 6 52 14 67 17 33 106 121 156 154 150 101 383 222 495
257 39 13 87 32 108 44 l38 21 27 -34 c15 -19 35 -43 44 -52 10 -10 18 -22 18
-28 0 -5 4 -10 9 -10 5 0 16 -11 25 -25 17 -25 17 -26 -22 -43 -49 -22 -114
-88 -141 -145 -74 -152 63 -294 324 -337 74 -12 162 -13 167 -2 2 5 19 11 40
15 35 5 38 4 77 -53 23 -32 41 -63 41 -69 0 -6 6 -11 13 -11 24 0 152 -164
141 -182 -4 -6 -3 -8 3 -5 5 4 23 -10 39 -30 16 -20 35 -42 41 -49 7 -7 13
-15 13 -17 0 -3 18 -23 41 -46 30 -32 39 -47 34 -64 -5 -16 -4 -18 4 -8 8 12
12 12 25 2 9 -8 16 -19 16 -27 0 -7 8 -19 18 -26 28 -21 82 -95 82 -113 0 -17
23 -45 37 -45 13 0 193 -208 193 -223 0 -9 10 -20 94 -113 25 -28 46 -55 46
-60 0 -5 8 -17 18 -25 9 -9 35 -39 57 -68 22 -28 43 -51 47 -51 5 0 8 -8 8
-19 0 -10 11 -26 25 -35 15 -10 23 -22 19 -29 -4 -7 -4 -9 1 -5 8 8 55 -40 55
-55 0 -5 20 -29 45 -55 25 -25 45 -49 45 -53 0 -8 165 -214 236 -294 14 -16
45 -55 67 -85 23 -30 48 -60 56 -67 10 -8 50 -12 106 -12 l90 0 -36 17 c-72
34 -109 86 -109 153 0 35 46 146 77 187 25 33 95 102 135 132 11 8 33 25 48
38 59 47 189 93 297 105 120 13 141 85 55 183 -15 18 -52 62 -82 100 -30 37
-90 108 -133 157 -43 50 -86 102 -95 116 -9 14 -24 32 -33 38 -10 7 -41 43
-70 80 -29 38 -81 100 -114 140 -144 171 -191 226 -201 237 -5 6 -35 41 -65
77 -30 37 -89 109 -132 160 -43 52 -95 114 -115 138 -20 24 -71 83 -112 131
-41 48 -82 96 -90 106 -50 63 -171 208 -215 259 -29 33 -99 116 -156 185 -57
69 -108 130 -114 136 -5 6 -28 33 -50 60 -22 26 -62 73 -89 104 -27 30 -56 66
-65 80 -9 14 -28 39 -43 55 -72 79 -244 284 -373 443 -11 14 -35 41 -54 61
-18 20 -50 56 -69 81 -89 110 -272 327 -291 344 -32 29 -25 49 27 72 26 12 90
42 143 68 103 49 123 54 136 32 12 -22 83 -71 122 -84 19 -7 69 -12 111 -12
67 0 85 4 141 33 83 41 118 90 119 163 0 41 -6 58 -30 90 -16 21 -30 42 -30
46 0 4 26 19 58 33 31 15 66 31 77 38 23 13 336 168 465 229 47 23 94 46 105
51 46 24 310 155 620 307 182 90 438 217 570 283 132 66 251 126 265 133 14 7
579 288 1255 625 l1230 613 160 7 c279 13 431 66 566 199 63 63 80 86 102 145
14 39 29 87 32 107 4 28 26 60 81 124 68 77 99 130 143 238 11 26 13 27 29 14
9 -8 61 -51 114 -96 104 -87 142 -119 195 -167 18 -16 50 -44 70 -61 21 -17
87 -74 146 -125 60 -52 137 -117 173 -145 35 -28 84 -69 108 -90 23 -22 96
-84 161 -139 65 -55 157 -133 204 -173 47 -40 113 -96 145 -125 33 -28 75 -64
95 -79 32 -24 53 -42 146 -123 12 -11 60 -51 106 -90 46 -38 95 -81 109 -95
14 -14 43 -38 65 -55 22 -16 46 -35 53 -42 7 -6 83 -72 169 -145 86 -73 178
-151 203 -173 26 -22 69 -58 95 -80 27 -22 88 -74 135 -115 48 -41 115 -100
150 -130 35 -30 100 -84 144 -121 45 -36 94 -78 111 -93 16 -15 61 -53 100
-84 38 -31 77 -63 86 -72 9 -8 56 -49 104 -90 93 -81 115 -112 139 -207 41
-156 -4 -310 -128 -441 -89 -95 -172 -149 -436 -285 -52 -27 -99 -52 -105 -57
-5 -4 -50 -29 -100 -55 -49 -26 -108 -59 -130 -72 -89 -55 -210 -123 -219
-123 -4 0 -6 6 -3 14 16 42 29 191 25 281 l-6 102 71 7 c84 8 130 28 163 71
43 57 22 147 -42 181 -19 10 -34 21 -34 25 0 4 17 19 38 35 75 57 101 102 102
174 0 86 -41 142 -123 167 -65 19 -173 -19 -255 -91 -29 -25 -36 -17 -52 63
-41 201 -194 361 -406 424 -28 8 -67 23 -85 33 -48 24 -154 129 -199 195 -21
30 -72 87 -113 126 -64 59 -87 73 -144 91 -86 27 -127 28 -205 1 -60 -20 -148
-74 -148 -91 0 -22 -32 0 -110 73 -172 164 -272 217 -420 226 -69 4 -96 1
-145 -16 -129 -46 -274 -173 -332 -290 -38 -78 -44 -218 -13 -306 37 -106 39
-100 -26 -64 -66 37 -186 111 -224 140 -14 10 -72 46 -129 81 -57 34 -106 69
-108 76 -3 7 3 23 14 35 43 48 73 103 73 135 0 51 -35 109 -87 142 -92 58
-155 49 -218 -32 -22 -28 -43 -60 -47 -71 -17 -41 -33 -10 -39 75 -4 63 -12
95 -28 121 -60 98 -205 82 -247 -28 -14 -37 -16 -65 -11 -150 6 -100 5 -105
-14 -105 -59 0 -135 -56 -164 -120 -16 -35 -22 -40 -64 -45 -95 -12 -174 -71
-211 -157 -20 -47 -21 -63 -17 -192 5 -178 14 -207 84 -274 30 -29 53 -58 50
-65 -2 -6 -29 -46 -59 -87 -67 -94 -75 -115 -83 -221 -7 -86 -6 -86 22 -108
34 -27 68 -25 166 12 69 25 80 34 145 120 40 52 30 48 227 89 94 20 131 24
170 17 28 -4 79 -8 115 -8 58 -1 71 -5 115 -36 115 -80 307 -211 323 -220 9
-5 42 -28 72 -50 30 -22 109 -76 175 -119 66 -44 145 -95 175 -115 l54 -36 17
-96 c53 -292 133 -469 322 -710 27 -33 46 -66 44 -73 -2 -6 -26 -17 -53 -25
-70 -20 -186 -66 -329 -130 -110 -49 -407 -200 -425 -216 -8 -7 -53 -36 -100
-65 -231 -144 -462 -377 -563 -568 -70 -132 -115 -290 -120 -422 l-3 -65 -76
-50 c-74 -48 -112 -71 -286 -177 -42 -25 -93 -56 -112 -69 -19 -12 -55 -33
-79 -47 -25 -14 -50 -29 -55 -34 -14 -11 -102 -65 -178 -109 -32 -19 -58 -37
-58 -41 0 -5 -4 -8 -10 -8 -5 0 -60 -30 -122 -67 -62 -37 -125 -74 -139 -83
-68 -40 -233 -139 -309 -186 -47 -28 -118 -70 -157 -93 -40 -23 -73 -47 -73
-53 0 -6 -3 -9 -6 -6 -6 6 -26 -5 -244 -132 -69 -40 -155 -90 -192 -110 -37
-21 -80 -47 -97 -59 -16 -12 -32 -21 -35 -21 -3 0 -47 -24 -98 -53 -51 -29
-111 -61 -133 -71 -22 -11 -49 -24 -60 -29 -32 -17 -93 -46 -123 -60 -24 -11
-14 -12 78 -15 62 -2 106 1 108 7 2 5 20 15 40 22 20 7 59 26 87 44 27 17 67
39 88 49 20 9 37 20 37 25 0 4 36 22 80 40 44 18 78 36 76 40 -3 4 29 25 70
46 40 22 74 42 74 45 0 3 21 17 48 30 26 14 49 27 52 30 8 8 41 28 91 54 25
14 51 32 58 40 8 9 17 16 22 16 4 0 20 5 36 11 15 7 35 13 43 15 8 1 33 8 55
15 22 7 91 14 152 16 101 4 122 1 198 -22 141 -44 205 -105 205 -194 0 -71
-15 -96 -79 -132 -31 -18 -58 -34 -61 -38 -3 -3 -21 -15 -40 -25 -29 -16 -128
-78 -197 -123 -14 -9 128 -12 642 -12 l660 -1 2 73 c5 120 24 260 40 288 9 15
39 40 67 56 81 47 156 93 226 139 36 23 83 52 105 63 22 12 72 41 110 66 39
24 95 58 125 75 l55 32 108 -12 c195 -23 398 9 588 91 l67 29 58 -25 c33 -14
68 -30 79 -35 11 -4 90 -35 175 -69 206 -79 251 -104 289 -156 17 -23 58 -70
91 -103 174 -175 394 -292 628 -333 39 -7 72 -16 72 -20 0 -4 -16 -38 -35 -76
-19 -37 -35 -71 -35 -75 0 -5 22 -8 49 -8 43 0 50 3 55 24 3 14 22 45 41 70
19 26 35 49 35 52 0 9 52 57 106 99 93 71 106 80 133 89 14 5 31 15 36 23 11
14 15 17 116 72 60 32 64 33 103 20 56 -18 129 -58 139 -75 4 -8 15 -14 22
-14 8 0 15 -9 15 -20 0 -11 7 -20 15 -20 8 0 15 -4 15 -9 0 -10 -178 -131
-192 -131 -4 0 -8 -4 -8 -8 0 -5 -24 -24 -52 -42 -29 -19 -57 -40 -61 -47 -4
-7 -22 -20 -39 -29 -17 -9 -40 -25 -51 -35 -20 -19 6 -19 1452 -19 884 0 1470
4 1467 9 -4 5 -67 49 -141 98 -74 48 -135 93 -135 99 0 11 52 43 245 152 44
24 104 60 133 78 29 19 55 34 58 34 3 0 24 13 47 28 23 15 56 34 72 42 17 8
41 22 55 31 14 9 45 28 70 43 126 73 214 123 251 143 22 12 52 30 67 40 15 10
55 34 89 53 225 126 293 166 330 191 23 16 44 29 47 29 4 0 39 20 79 44 39 24
114 67 165 95 l92 53 88 -58 c458 -302 509 -334 520 -334 6 0 12 -4 14 -8 2
-5 28 -25 58 -45 l55 -37 3 667 c1 366 0 668 -2 671 -4 4 -62 -3 -206 -24 -33
-5 -34 -4 -16 10 11 9 66 41 123 73 102 57 103 58 103 95 0 43 -10 46 -48 19
-15 -10 -52 -32 -82 -48 -86 -46 -256 -141 -424 -237 -54 -31 -102 -56 -107
-56 -5 0 -9 -5 -9 -10 0 -6 -11 -15 -24 -20 -13 -5 -72 -36 -131 -69 -58 -34
-114 -61 -123 -61 -9 0 -51 30 -92 66 -41 36 -102 90 -135 119 -57 50 -167
145 -286 246 -98 84 -136 119 -206 187 -38 37 -102 96 -142 132 -40 36 -96 86
-124 112 -28 27 -55 48 -59 48 -4 0 -8 7 -8 15 0 8 4 15 9 15 9 0 104 59 127
78 24 22 95 62 107 62 7 0 20 9 30 20 10 12 21 18 26 15 5 -2 11 2 15 10 3 8
14 15 25 15 11 0 24 6 28 13 8 13 80 71 118 95 11 7 34 21 50 32 17 11 37 20
46 20 9 0 28 12 43 26 23 24 153 114 163 114 3 0 16 9 30 20 14 11 32 20 40
20 8 0 26 14 40 30 13 17 31 30 39 30 8 0 29 13 46 29 17 16 54 40 82 52 28
13 55 29 59 36 4 7 20 19 36 27 23 13 31 13 52 1 13 -8 34 -19 47 -24 12 -6
22 -15 22 -21 0 -6 10 -14 23 -19 28 -11 95 -54 118 -76 9 -8 20 -15 25 -15 5
0 25 -14 44 -32 19 -18 53 -41 75 -53 48 -25 88 -48 95 -55 3 -3 25 -19 50
-35 25 -16 47 -33 50 -37 10 -13 78 -56 99 -63 11 -3 27 -12 33 -18 19 -18 93
-67 101 -67 4 0 7 111 7 246 l0 246 -33 30 c-17 16 -50 38 -72 50 -22 11 -56
32 -75 47 -45 33 -100 71 -104 71 -2 0 -47 28 -98 63 -133 88 -131 86 -148 94
-30 13 -120 84 -120 94 0 6 -4 8 -10 4 -5 -3 -26 1 -46 10 -82 34 -139 19
-266 -67 -30 -21 -59 -38 -65 -38 -5 0 -18 -8 -29 -17 -24 -23 -101 -74 -137
-92 -15 -8 -32 -22 -38 -32 -5 -11 -19 -19 -29 -19 -11 0 -20 -4 -20 -10 0 -5
-6 -10 -14 -10 -7 0 -25 -11 -40 -25 -15 -14 -30 -25 -33 -25 -4 0 -29 -15
-57 -34 -197 -130 -286 -186 -295 -186 -6 0 -11 -4 -11 -9 0 -5 -15 -16 -32
-24 -18 -9 -42 -24 -53 -34 -11 -10 -36 -26 -55 -35 -19 -9 -45 -26 -57 -37
-12 -12 -26 -21 -31 -21 -5 0 -17 -9 -27 -20 -10 -11 -22 -20 -28 -20 -5 0
-55 -30 -111 -67 -55 -38 -113 -73 -128 -80 -16 -7 -28 -17 -28 -22 0 -6 -11
-13 -25 -17 -14 -3 -25 -10 -25 -15 0 -5 -4 -9 -10 -9 -11 0 -223 -141 -228
-152 -2 -5 -8 -8 -13 -8 -5 0 -52 -29 -104 -64 -52 -36 -103 -67 -114 -71 -10
-3 -26 -14 -36 -25 -10 -11 -22 -20 -26 -20 -4 0 -29 -14 -55 -31 -55 -38
-139 -46 -172 -16 -10 9 -22 17 -27 17 -4 0 -18 10 -30 23 -12 12 -34 31 -47
42 -14 11 -24 23 -21 28 2 4 1 6 -4 5 -14 -4 -53 13 -53 23 0 5 -7 9 -15 9 -8
0 -15 4 -15 9 0 4 -27 27 -60 50 -73 51 -77 58 -48 71 13 6 37 19 53 29 17 11
37 20 45 20 9 1 24 14 33 31 15 25 25 30 55 30 31 1 42 7 67 40 18 23 39 39
51 40 12 0 27 6 33 14 6 8 37 29 68 47 31 19 66 44 78 56 12 13 29 23 38 23 9
0 19 5 22 10 3 6 16 10 28 10 12 0 28 9 34 19 7 10 38 34 70 52 32 18 62 39
66 46 5 8 34 26 65 40 31 15 64 34 72 44 12 15 38 19 145 25 72 4 132 11 135
15 3 4 32 15 64 23 32 9 63 20 70 24 6 5 29 13 51 17 22 3 61 20 87 36 26 15
59 31 72 35 14 3 30 12 37 20 6 8 18 14 25 14 8 0 14 5 14 11 0 5 19 19 43 30
23 11 54 28 68 37 68 44 85 56 94 67 6 6 33 24 60 40 28 15 55 33 60 39 23 26
103 86 114 86 7 0 23 13 36 29 14 15 38 34 55 41 16 7 30 16 30 20 0 4 28 27
63 51 34 24 76 56 92 71 17 15 38 28 47 28 9 0 23 8 30 18 7 11 24 24 36 31
27 14 67 47 91 74 8 9 21 17 28 17 7 0 13 4 13 9 0 9 113 81 128 81 6 0 28 15
50 33 22 19 55 40 73 47 19 8 36 17 39 20 5 6 40 23 190 93 30 14 71 28 90 31
19 3 51 11 70 17 39 12 45 13 143 28 38 5 75 7 83 4 11 -4 14 5 14 42 l0 48
-86 -7 c-144 -12 -370 -77 -474 -137 -8 -5 -31 -17 -50 -27 -106 -55 -230
-132 -230 -144 0 -4 -5 -8 -11 -8 -9 0 -125 -77 -153 -102 -6 -5 -32 -24 -57
-41 -51 -35 -196 -143 -219 -164 -33 -29 -360 -270 -441 -324 -105 -71 -288
-174 -349 -196 -25 -9 -72 -26 -105 -39 -154 -58 -379 -68 -544 -25 -108 29
-351 154 -351 181 0 4 30 27 67 51 l67 42 31 -18 c186 -107 225 -119 405 -119
142 0 147 1 260 38 181 61 289 120 510 278 25 17 68 48 95 67 99 70 148 106
185 136 37 30 78 62 129 99 91 67 227 170 231 176 6 8 216 144 299 194 88 54
187 105 246 127 28 11 59 23 70 28 107 45 328 91 442 91 32 0 33 1 33 45 l0
45 -39 0 c-149 0 -560 -109 -614 -162 -10 -10 -26 -18 -37 -18 -10 0 -22 -5
-25 -10 -3 -6 -25 -19 -48 -30 -23 -11 -51 -26 -62 -33 -89 -55 -137 -87 -182
-119 -29 -21 -53 -36 -53 -32 0 3 -8 -3 -18 -15 -9 -12 -30 -23 -46 -25 -19
-2 -32 -11 -37 -25 -5 -11 -15 -21 -24 -21 -8 0 -15 -4 -15 -9 0 -5 -45 -42
-101 -82 -56 -41 -106 -78 -112 -84 -7 -5 -28 -22 -47 -36 -19 -15 -45 -35
-58 -45 -12 -11 -32 -27 -45 -36 -12 -9 -36 -29 -53 -43 -18 -14 -37 -25 -42
-25 -6 0 -18 -7 -27 -17 -24 -23 -72 -57 -135 -94 -30 -18 -59 -39 -63 -46 -4
-7 -15 -13 -22 -13 -8 0 -15 -4 -15 -10 0 -5 -5 -10 -11 -10 -6 0 -23 -9 -37
-21 -42 -32 -102 -69 -112 -69 -5 0 -30 -11 -56 -25 -26 -14 -59 -25 -74 -25
-15 0 -33 -6 -39 -14 -6 -8 -24 -16 -39 -18 -15 -3 -31 -6 -37 -8 -5 -1 -30
-2 -55 0 -35 1 -41 3 -25 10 18 8 19 9 1 9 -11 1 -16 6 -13 15 4 9 -3 16 -19
20 -32 8 -64 41 -64 66 0 14 -7 20 -24 20 -13 0 -27 7 -30 16 -4 9 -13 14 -21
10 -8 -3 -15 -1 -15 4 0 6 -11 10 -25 10 -14 0 -25 4 -25 9 0 14 29 41 44 41
7 0 21 9 30 19 10 11 32 25 49 32 53 21 167 112 167 132 0 5 6 23 14 40 21 49
56 179 56 209 0 15 4 38 10 52 23 61 -36 207 -89 218 -18 4 34 41 129 91 30
16 62 36 71 43 8 8 21 14 27 14 6 0 42 20 79 45 37 25 71 45 76 45 5 0 26 13
46 29 34 26 66 46 130 80 14 7 37 24 51 36 14 12 36 28 50 35 14 7 41 25 60
40 19 14 71 53 115 86 44 32 84 64 88 71 4 7 15 13 22 13 8 0 15 4 15 9 0 5
26 28 58 52 31 23 60 48 64 55 12 20 99 71 168 100 36 14 90 39 120 54 30 15
70 31 88 35 18 4 36 13 39 21 3 8 10 14 17 14 6 0 32 11 58 24 25 13 58 26 73
30 31 8 117 47 125 56 5 6 30 18 142 68 25 12 49 26 53 32 3 5 15 10 26 10 10
0 19 5 19 10 0 6 8 10 18 10 9 0 28 9 42 20 14 11 30 20 35 20 6 0 32 11 59
25 27 14 58 25 68 25 10 0 18 4 18 8 0 11 78 62 96 62 10 0 14 14 14 56 l0 56
-53 -30 c-154 -87 -443 -233 -632 -320 -204 -93 -245 -112 -311 -143 -36 -17
-68 -28 -71 -26 -2 3 13 29 34 58 21 29 52 80 69 114 30 59 33 61 131 110 55
28 129 63 164 79 158 71 481 237 539 276 14 9 49 30 78 45 52 28 52 28 52 76
l0 49 -52 -29 c-61 -33 -120 -66 -163 -92 -16 -10 -66 -37 -110 -60 -44 -23
-84 -45 -90 -50 -5 -5 -19 -9 -32 -9 -13 0 -23 -4 -23 -10 0 -5 -12 -13 -27
-16 -29 -7 -68 -30 -91 -51 -7 -7 -18 -13 -23 -13 -5 0 -43 -16 -84 -35 -41
-19 -79 -35 -83 -36 -4 -1 -29 -13 -55 -27 -27 -13 -51 -21 -54 -18 -3 3 -7
33 -8 68 -4 80 -16 144 -38 187 -9 19 -17 40 -17 48 0 7 -8 21 -18 31 -10 10
-29 36 -42 57 -31 51 -122 142 -183 184 -26 17 -47 36 -47 41 0 6 -5 10 -11
10 -6 0 -25 10 -42 23 -37 26 -66 44 -87 53 -31 13 -146 67 -175 82 -76 40
-133 62 -158 62 -12 0 -33 7 -46 16 -13 10 -51 23 -85 30 -81 17 -204 52 -241
69 -16 7 -60 25 -97 40 -38 15 -68 31 -68 36 0 5 -6 9 -12 9 -18 0 -121 109
-136 144 -18 40 -6 149 22 201 36 68 90 135 105 130 9 -4 11 0 7 10 -3 8 -1
15 4 15 6 0 10 4 10 10 0 12 22 39 77 96 33 35 49 44 76 44 19 0 40 -7 47 -15
6 -7 33 -17 58 -20 26 -4 56 -10 67 -14 22 -9 102 -28 150 -37 17 -2 41 -9 55
-13 41 -15 226 -22 540 -21 350 2 436 5 474 19 15 6 39 11 54 11 15 0 77 10
137 21 61 11 126 21 145 22 19 1 37 5 40 8 6 8 125 39 148 39 9 0 53 12 99 26
l83 26 0 39 c0 44 0 44 -72 25 -29 -8 -87 -24 -128 -35 -98 -26 -364 -80 -454
-92 -260 -34 -679 -44 -886 -20 -303 34 -511 85 -772 187 -99 39 -305 141
-314 155 -11 19 -52 8 -80 -22 -36 -38 -173 -107 -274 -137 -191 -57 -376 -88
-650 -112 -84 -7 -507 4 -625 15 -93 10 -281 60 -379 101 -74 31 -101 49 -156
103 -56 56 -69 76 -85 128 -17 59 -17 66 -2 128 20 79 57 136 134 204 64 56
213 138 312 170 99 32 97 34 105 -61 8 -102 40 -173 77 -173 19 0 24 5 23 25
-1 14 -9 43 -18 65 -24 63 -20 178 9 245 31 73 77 126 121 140 33 11 42 9 116
-25 100 -45 191 -54 196 -19 2 17 -5 24 -29 33 -18 6 -42 11 -55 11 -13 0 -25
4 -28 9 -3 4 -18 11 -33 14 -61 12 -182 125 -221 205 -14 29 -20 32 -60 32
l-45 0 7 -32 c4 -18 11 -34 16 -36 6 -2 10 -7 10 -12 0 -4 15 -23 34 -42 27
-27 33 -40 29 -61 -3 -15 -9 -27 -13 -27 -4 0 -19 -11 -34 -25 -15 -14 -34
-25 -42 -25 -8 0 -14 -10 -14 -22 0 -32 -13 -49 -38 -51 -25 -1 -30 -17 -6
-17 9 0 14 -7 12 -16 -3 -18 -82 -48 -103 -40 -7 2 -16 -1 -18 -8 -3 -7 -24
-16 -47 -19 -23 -3 -52 -14 -63 -25 -12 -11 -34 -22 -48 -25 -14 -4 -43 -18
-64 -32 -30 -21 -40 -24 -46 -13 -11 17 -5 94 10 111 6 8 9 16 6 19 -3 3 1 11
10 18 8 7 15 21 15 30 0 10 9 40 20 66 18 40 20 65 18 163 l-3 116 -47 3 -46
3 10 -43 c33 -141 -35 -339 -133 -389 -84 -42 -203 -10 -238 66 -30 62 -34
114 -16 184 17 67 48 133 71 152 24 20 16 29 -29 29 -41 0 -45 -2 -65 -43 -44
-89 -54 -130 -54 -224 1 -51 -2 -93 -6 -93 -13 0 -72 40 -72 48 0 5 7 24 16
42 23 45 14 163 -17 227 l-22 46 -117 -6 c-64 -3 -126 -10 -136 -16 -22 -12
-248 -93 -314 -112 -25 -7 -54 -18 -65 -24 -11 -7 -49 -20 -85 -30 -36 -10
-72 -24 -81 -32 -8 -7 -25 -13 -37 -13 -12 0 -22 -4 -22 -9 0 -5 -19 -11 -42
-15 -24 -4 -52 -13 -64 -21 -12 -7 -45 -18 -75 -23 -29 -6 -55 -15 -57 -21 -2
-6 -11 -11 -21 -11 -9 0 -21 -4 -27 -8 -5 -5 -29 -14 -54 -21 -25 -7 -61 -22
-81 -32 -20 -11 -46 -19 -58 -19 -12 0 -44 -11 -71 -25 -27 -14 -58 -25 -68
-25 -10 0 -23 -5 -29 -11 -6 -6 -26 -14 -44 -19 -19 -5 -54 -16 -78 -25 -25
-9 -54 -14 -66 -11 -26 7 -65 39 -65 54 0 24 -63 42 -147 42 -70 0 -90 -4
-121 -23 -20 -13 -79 -40 -129 -61 -51 -21 -93 -43 -93 -47 0 -5 -8 -9 -17 -9
-10 0 -29 -9 -43 -20 -14 -11 -32 -20 -41 -20 -9 0 -22 -6 -28 -14 -7 -8 -25
-18 -41 -21 -16 -4 -45 -17 -64 -30 -18 -12 -51 -29 -72 -36 -22 -7 -43 -17
-48 -21 -15 -12 -26 -10 -26 6 0 7 -18 36 -39 63 -65 81 -219 143 -359 143
-134 0 -195 -29 -248 -120 -17 -28 -19 -28 -46 -14 -15 8 -28 19 -28 24 0 6
-4 10 -9 10 -5 0 -26 17 -48 38 -63 61 -132 119 -183 157 -58 42 -61 49 -49
106 28 132 30 233 6 292 -11 24 -17 27 -60 27 l-47 0 15 -36 c27 -65 14 -284
-17 -284 -4 0 -8 3 -8 8 0 4 -38 40 -85 81 -61 53 -85 80 -85 97 0 45 -57 56
-120 24 -42 -21 -118 -46 -245 -80 -159 -42 -422 -98 -501 -106 l-62 -7 5 89
c6 109 7 114 34 114 13 0 36 4 53 10 26 8 124 29 329 70 21 4 41 10 44 14 4 3
-113 6 -259 6 l-266 0 -6 -82 c-3 -46 -8 -164 -11 -263 -17 -545 -16 -535 -67
-550 -25 -8 -314 -119 -363 -141 -16 -7 -50 -20 -75 -29 -25 -9 -65 -25 -90
-35 -25 -10 -94 -37 -155 -60 -60 -23 -119 -46 -130 -50 -11 -4 -56 -22 -100
-38 -44 -17 -129 -49 -190 -72 -60 -23 -126 -48 -145 -55 -19 -7 -64 -24 -100
-38 -112 -42 -340 -127 -450 -167 -58 -21 -150 -55 -205 -75 -216 -79 -282
-103 -330 -120 -27 -10 -66 -24 -85 -31 -182 -69 -711 -250 -815 -279 -27 -8
-81 -23 -118 -34 -73 -21 -93 -20 -102 8 -3 10 -12 92 -21 182 -12 128 -17
359 -21 1047 l-6 882 -38 0 -39 0 0 -682 c0 -682 15 -1315 31 -1332 5 -6 9
-20 9 -33 l0 -22 -33 22 c-58 40 -144 112 -158 132 -16 24 -23 208 -38 965 -5
289 -13 621 -17 738 l-7 212 -983 0 -984 0 0 -1421z m10720 1323 c14 -53 12
-128 -4 -160 -20 -38 -37 -46 -366 -162 -141 -49 -314 -113 -365 -134 -16 -7
-91 -34 -165 -61 -182 -64 -243 -87 -255 -97 -5 -4 -16 -8 -24 -8 -8 0 -48
-13 -90 -29 -42 -16 -128 -48 -191 -71 -194 -70 -384 -141 -405 -150 -11 -5
-92 -35 -180 -66 -88 -31 -196 -70 -240 -86 -121 -46 -154 -54 -169 -43 -7 6
-40 30 -73 55 -33 25 -68 50 -78 55 -13 8 -15 18 -10 48 8 43 16 48 145 90
117 39 252 87 285 102 17 8 84 32 150 55 66 23 153 55 194 71 40 16 82 29 92
29 10 0 20 4 23 9 3 4 27 14 53 21 27 7 53 16 58 20 6 4 19 10 30 13 11 3 72
24 135 47 149 54 388 139 420 150 14 5 63 23 110 40 47 17 96 35 110 40 14 5
63 23 110 40 47 18 148 54 225 82 77 27 158 56 180 64 287 104 276 103 295 36z
m36 -313 c11 -10 30 -19 41 -19 13 0 23 -9 27 -22 9 -28 24 -177 36 -353 5
-71 12 -163 16 -204 6 -72 6 -74 -22 -98 -16 -14 -43 -32 -61 -39 -17 -8 -34
-18 -38 -24 -3 -5 -14 -10 -25 -10 -10 0 -20 -6 -23 -13 -2 -6 -22 -18 -43
-26 -22 -7 -52 -23 -69 -36 -16 -12 -48 -28 -70 -35 -22 -7 -50 -19 -63 -27
-13 -8 -31 -13 -40 -12 -30 3 -40 -1 -57 -17 -11 -12 -19 -14 -27 -6 -7 7 -16
5 -29 -6 -16 -14 -157 -50 -199 -51 -8 -1 -32 15 -52 34 -21 18 -38 32 -38 29
0 -5 -7 2 -85 74 -22 20 -72 62 -110 91 -39 30 -77 62 -86 70 -9 9 -41 36 -70
61 -29 25 -68 60 -85 78 -18 17 -36 32 -41 32 -4 0 -28 18 -52 40 -25 22 -48
40 -53 40 -4 0 -8 4 -8 10 0 5 17 12 38 16 20 4 42 10 47 14 6 4 28 13 50 20
22 7 54 18 70 25 51 23 157 63 230 88 164 57 231 80 250 88 32 14 277 100 310
109 46 12 97 31 127 46 14 8 32 14 40 14 7 0 29 11 48 25 40 28 81 26 116 -6z
m234 -90 c36 -17 55 -20 114 -16 39 3 83 8 97 12 24 6 27 4 33 -33 8 -52 -2
-76 -58 -135 -108 -114 -136 -279 -71 -410 30 -60 118 -151 162 -168 29 -11
43 -46 43 -106 0 -26 5 -85 10 -132 22 -187 80 -864 83 -961 2 -73 2 -74 -28
-89 -40 -20 -144 -26 -188 -12 -36 12 -76 60 -97 116 -11 28 -38 324 -75 820
-9 116 -18 219 -20 230 -3 11 -9 83 -15 160 -6 77 -17 212 -25 300 -41 452
-41 445 -22 445 7 0 33 -9 57 -21z m-2063 -34 c69 -41 75 -36 -137 -112 -69
-25 -161 -58 -205 -74 -44 -16 -100 -36 -125 -45 -25 -8 -54 -19 -65 -24 -55
-24 -249 -90 -266 -90 -31 0 -22 27 18 55 21 14 42 25 47 25 6 0 66 28 135 61
200 98 445 216 461 222 37 14 95 6 137 -18z m-1116 -80 c115 -24 209 -74 209
-111 0 -34 -97 -46 -270 -32 -31 3 -35 0 -35 -22 0 -21 8 -28 55 -43 56 -18
175 -19 243 -2 l29 8 -7 -159 c-8 -177 -14 -193 -83 -236 -31 -19 -54 -23
-140 -26 -113 -5 -169 6 -247 45 -61 32 -80 47 -116 97 -33 44 -39 109 -14
142 8 10 15 25 15 32 0 23 93 236 117 269 39 53 115 65 244 38z m1601 -325
c84 -70 151 -126 223 -190 29 -25 85 -72 125 -105 41 -33 94 -78 119 -101 25
-23 76 -65 112 -95 105 -85 241 -200 279 -236 19 -18 43 -36 53 -39 9 -3 17
-9 17 -13 0 -4 48 -48 108 -97 59 -48 152 -127 207 -174 55 -47 125 -105 155
-130 88 -72 90 -74 90 -85 0 -5 -24 -23 -52 -40 -90 -52 -136 -100 -144 -151
-6 -40 -3 -48 27 -87 37 -48 153 -150 249 -220 36 -26 83 -62 105 -80 51 -41
162 -119 213 -147 67 -38 137 -21 269 66 28 19 58 34 67 34 9 0 33 -15 53 -33
21 -18 50 -42 65 -54 15 -11 51 -40 80 -65 95 -82 215 -183 239 -202 13 -10
53 -44 89 -75 36 -31 90 -77 120 -101 30 -25 92 -76 136 -115 105 -90 234
-199 354 -299 52 -43 102 -85 110 -92 8 -7 38 -33 65 -56 50 -42 82 -69 220
-184 39 -33 80 -69 93 -82 12 -12 25 -22 30 -22 4 0 23 -15 42 -33 19 -18 79
-70 133 -115 97 -84 102 -92 97 -152 -4 -50 -31 -72 -258 -211 -228 -139 -311
-191 -445 -277 -29 -19 -61 -38 -72 -43 -25 -11 -49 -26 -106 -67 -26 -17 -50
-32 -53 -32 -4 0 -33 -17 -64 -37 -31 -21 -66 -42 -77 -48 -24 -14 -264 -165
-343 -217 -32 -21 -64 -41 -72 -45 -36 -17 -186 -110 -267 -165 -23 -15 -44
-28 -47 -28 -3 0 -39 -21 -80 -47 -40 -27 -157 -100 -260 -163 -103 -63 -227
-141 -277 -172 -50 -32 -93 -58 -97 -58 -4 0 -13 30 -20 66 -19 102 -63 171
-145 228 -15 10 -27 23 -27 27 0 5 15 32 33 61 18 29 44 80 57 113 42 106 58
122 165 175 17 8 55 30 85 49 90 58 223 131 247 137 13 4 23 10 23 15 0 4 21
19 48 32 26 13 88 45 137 70 50 26 96 47 103 47 6 0 12 4 12 9 0 5 20 18 45
30 59 28 179 116 230 170 22 23 58 61 81 85 46 47 67 98 83 204 22 146 11 249
-41 361 -22 49 -55 81 -277 266 -13 11 -74 63 -135 116 -61 52 -124 106 -140
120 -16 13 -46 38 -65 55 -20 17 -94 80 -166 139 -155 129 -228 192 -415 355
-34 30 -69 59 -76 63 -8 5 -37 29 -65 55 -28 26 -61 54 -73 62 -23 16 -169
140 -266 225 -31 28 -139 120 -240 205 -101 85 -232 196 -290 245 -58 50 -148
126 -200 169 -52 44 -99 84 -105 90 -10 12 -152 131 -170 144 -9 6 -158 137
-191 167 -6 5 -23 19 -39 30 -15 11 -59 48 -97 82 -38 35 -90 79 -116 100 -26
21 -63 51 -83 68 -20 16 -47 39 -60 49 -13 11 -41 34 -62 53 -63 56 -107 39
-127 -50 -6 -27 -21 -70 -34 -95 -32 -63 -97 -141 -112 -135 -6 2 -15 33 -19
67 -9 88 -66 205 -152 313 -32 41 -36 63 -10 63 6 0 52 15 102 34 49 19 135
51 190 71 55 19 107 38 115 42 25 10 139 52 255 95 61 22 144 53 185 68 41 15
85 28 97 29 14 1 50 -22 95 -59z m-2057 -115 c26 -91 79 -147 190 -202 82 -41
141 -53 265 -55 96 -1 110 1 160 26 54 26 130 98 130 123 0 22 18 15 73 -27
108 -84 215 -212 256 -309 53 -125 58 -313 11 -419 -73 -164 -298 -277 -577
-289 -194 -9 -437 31 -603 99 -107 43 -258 123 -305 161 -120 97 -209 216
-244 326 -30 92 0 214 75 313 83 107 199 186 369 250 110 42 128 47 159 45 25
-2 31 -8 41 -42z m6048 -122 c18 -10 34 -21 35 -25 2 -5 10 -8 18 -8 8 0 26
-7 39 -16 l24 -16 -49 -48 c-28 -27 -50 -51 -50 -54 0 -10 -34 -46 -44 -46
-10 0 -56 -51 -56 -63 0 -4 -11 -12 -25 -17 -14 -5 -28 -18 -32 -27 -3 -10
-23 -39 -44 -64 -43 -53 -67 -102 -99 -206 -29 -93 -23 -151 29 -253 7 -12 69
-67 149 -131 29 -24 133 -69 157 -69 14 0 45 -9 68 -21 23 -11 69 -26 102 -34
33 -7 85 -20 116 -29 30 -8 66 -17 80 -19 13 -2 50 -16 83 -30 35 -16 76 -27
102 -27 35 0 49 -5 66 -25 12 -14 30 -25 40 -25 10 0 37 -9 60 -21 22 -11 50
-22 61 -25 11 -2 23 -7 26 -12 3 -4 22 -15 41 -22 123 -50 340 -222 340 -270
0 -11 3 -20 8 -20 4 0 18 -16 31 -35 22 -33 23 -42 18 -128 -8 -139 -23 -165
-209 -359 -20 -21 -41 -38 -47 -38 -6 0 -15 -9 -21 -20 -6 -11 -15 -20 -21
-20 -10 0 -83 -54 -104 -76 -5 -6 -26 -20 -45 -32 -19 -11 -44 -29 -56 -40
-11 -11 -36 -28 -55 -37 -19 -10 -65 -39 -104 -64 -38 -26 -78 -50 -87 -54
-10 -3 -18 -11 -18 -17 0 -5 -7 -10 -15 -10 -8 0 -29 -13 -47 -29 -18 -15 -43
-31 -54 -35 -12 -4 -29 -15 -39 -26 -10 -11 -24 -20 -32 -20 -7 0 -13 -4 -13
-9 0 -5 -19 -18 -42 -30 -48 -24 -81 -43 -88 -52 -3 -4 -34 -22 -69 -40 -84
-44 -100 -54 -114 -68 -6 -6 -20 -11 -32 -11 -11 0 -33 -9 -50 -20 -46 -31
-45 -31 -125 37 -25 22 -64 54 -88 72 -23 18 -55 45 -70 60 -48 45 -89 79
-113 91 -13 7 -40 27 -59 44 -20 17 -55 47 -79 66 -24 19 -67 55 -96 80 -28
25 -72 62 -96 82 -55 47 -50 52 81 103 52 20 99 41 105 46 5 5 18 9 30 9 12 0
25 4 30 9 6 4 62 32 125 60 109 49 270 136 315 170 11 9 49 45 85 81 91 90
116 167 89 265 -39 138 -143 194 -614 330 -110 31 -238 71 -285 87 -217 76
-343 166 -402 285 -30 61 -33 75 -32 157 0 130 45 250 154 411 70 103 70 103
195 114 173 15 367 41 386 52 10 5 30 9 45 9 31 0 105 20 119 32 5 4 19 8 32
8 13 0 42 9 66 19 23 11 66 30 95 43 28 12 52 26 52 30 0 5 7 8 15 8 9 0 28
11 43 25 32 30 26 29 65 8z m-2493 -40 c0 -21 3 -61 6 -90 l7 -52 -54 -34
c-131 -82 -343 -176 -482 -212 l-59 -15 -74 62 c-41 34 -74 66 -74 69 0 4 19
10 42 14 130 22 416 135 536 211 29 19 54 34 57 34 2 0 21 11 41 25 20 14 41
25 45 25 5 0 9 -17 9 -37z m576 -146 c4 -4 21 -7 38 -7 17 0 51 -6 76 -14 25
-7 63 -14 85 -14 22 0 54 -6 70 -13 18 -7 102 -13 215 -16 198 -4 270 -10 270
-22 0 -4 -9 -16 -19 -28 -11 -11 -29 -39 -40 -62 -12 -22 -25 -41 -29 -41 -4
0 -16 -26 -27 -57 -10 -32 -25 -71 -33 -88 -22 -44 -42 -152 -42 -223 0 -73
32 -183 66 -227 59 -76 100 -124 108 -124 4 -1 22 -13 39 -27 35 -29 159 -94
181 -94 8 0 19 -6 23 -12 4 -7 17 -14 28 -15 11 -1 43 -9 70 -18 28 -9 68 -21
90 -27 22 -5 81 -22 130 -37 50 -16 110 -34 135 -41 25 -7 61 -18 80 -25 51
-19 137 -45 150 -45 6 0 20 -9 32 -20 12 -11 30 -20 41 -20 10 0 30 -9 44 -20
14 -11 31 -20 38 -20 19 0 75 -68 76 -93 4 -79 3 -96 -12 -130 -18 -41 -117
-130 -195 -173 -115 -64 -179 -94 -191 -90 -7 3 -13 1 -13 -4 0 -8 -24 -21
-100 -53 -8 -4 -22 -11 -30 -16 -8 -6 -46 -22 -85 -37 -38 -14 -96 -39 -129
-55 -32 -16 -66 -29 -76 -29 -11 0 -22 -4 -25 -10 -12 -19 -44 -10 -77 20 -39
36 -47 42 -118 100 -73 59 -118 98 -158 137 -18 17 -36 33 -41 35 -5 2 -61 48
-124 103 l-115 100 19 24 c31 39 59 111 59 150 0 37 -40 128 -64 146 -31 24
-133 112 -170 148 -21 20 -40 37 -42 37 -2 0 -34 28 -70 63 -36 34 -74 67 -83
72 -10 6 -31 21 -47 35 -29 24 -30 28 -32 120 -1 52 -6 111 -12 130 -5 19 -10
64 -10 100 0 36 -4 81 -9 100 -6 19 -12 80 -15 135 -4 85 -21 281 -27 311 -1
5 -1 12 0 16 1 7 86 -23 97 -35z m-6856 -72 c0 6 5 2 11 -8 6 -10 20 -22 32
-28 33 -14 87 -48 169 -104 40 -27 78 -52 83 -55 41 -20 166 -125 184 -154 41
-65 45 -62 -301 -225 -48 -23 -90 -41 -93 -41 -3 0 -41 -16 -83 -36 -42 -20
-131 -60 -197 -89 -66 -29 -172 -76 -235 -104 -63 -29 -124 -56 -135 -60 -11
-5 -63 -27 -115 -49 -252 -107 -351 -139 -457 -149 -69 -6 -123 9 -200 56 -60
37 -169 132 -185 160 -19 36 -198 207 -245 234 -11 7 -11 12 -2 23 6 7 15 11
20 9 4 -3 25 3 46 13 50 25 127 44 148 36 10 -4 22 1 30 12 8 11 15 15 15 11
0 -5 7 -2 15 7 11 10 26 14 48 10 23 -4 28 -3 18 4 -11 8 -4 15 30 30 24 11
60 23 79 26 32 6 33 6 17 -8 -10 -8 -14 -17 -8 -20 5 -3 11 0 14 6 11 31 20
-6 10 -42 -5 -22 -6 -37 -2 -34 5 3 9 -13 9 -35 0 -23 3 -41 8 -41 4 0 12 -10
17 -22 10 -24 135 -96 169 -97 10 -1 55 15 100 34 45 19 118 48 163 64 45 17
90 35 100 40 18 11 157 65 263 103 30 11 78 30 105 42 28 13 68 29 90 36 22 7
67 25 100 40 l60 27 28 144 c15 79 27 165 27 191 0 36 4 47 18 50 9 2 20 -1
24 -7 5 -6 8 -6 8 0z m6291 -121 c1 -43 5 -83 9 -89 11 -16 31 -346 23 -380
-13 -47 -1 -101 18 -89 5 3 9 -2 9 -10 0 -22 -13 -20 -28 4 -7 11 -18 20 -25
20 -7 0 -51 36 -97 80 -47 43 -90 79 -96 80 -7 0 -19 11 -27 23 -9 13 -29 30
-46 37 -29 11 -36 21 -32 43 1 5 -3 6 -8 3 -5 -3 -25 10 -45 29 -20 19 -40 35
-44 35 -10 0 -102 85 -102 94 0 3 15 6 33 6 18 0 41 6 52 13 11 7 38 19 60 26
44 15 185 81 225 105 29 18 114 55 117 52 1 -1 3 -38 4 -82z m-6442 -11 c0
-49 -6 -113 -12 -143 l-12 -55 -210 -83 c-115 -46 -230 -92 -255 -102 -182
-76 -398 -155 -404 -149 -2 2 1 67 6 144 9 124 12 142 32 157 11 10 31 18 43
18 12 0 28 7 37 15 8 8 27 15 43 15 15 0 37 7 47 15 11 8 28 15 38 15 11 0 38
9 60 20 23 11 52 20 65 20 13 0 23 5 23 11 0 6 6 9 14 6 8 -3 20 1 26 9 7 8
20 14 29 14 9 0 35 9 56 21 51 27 149 64 250 95 43 13 84 29 89 34 6 6 16 10
23 10 10 0 13 -22 12 -87z m2159 -48 c7 -76 89 -211 185 -304 149 -146 349
-251 587 -310 47 -11 96 -22 109 -23 14 -2 26 -8 28 -15 3 -7 -154 -89 -384
-203 -213 -105 -395 -195 -403 -199 -8 -4 -44 -22 -80 -40 -36 -18 -73 -37
-82 -42 -94 -49 -845 -422 -883 -439 -44 -20 -588 -289 -640 -317 -11 -6 -85
-43 -165 -82 -80 -38 -359 -176 -620 -304 -397 -196 -805 -396 -985 -484 -22
-10 -49 -24 -60 -30 -11 -6 -76 -39 -144 -73 l-125 -62 -120 -2 c-134 -1 -161
-10 -229 -70 -25 -22 -43 -50 -51 -78 -12 -41 -16 -45 -102 -88 -49 -25 -118
-58 -154 -73 -36 -16 -72 -32 -81 -37 -21 -11 -31 -3 -95 75 -27 33 -61 73
-76 90 -15 16 -50 58 -78 93 -29 35 -58 66 -65 69 -37 14 -269 -203 -359 -334
-78 -114 -108 -201 -114 -320 -4 -96 -2 -108 24 -168 16 -39 24 -69 18 -74
-17 -17 -174 -80 -236 -97 -45 -11 -92 -15 -164 -12 -95 3 -107 6 -179 42 -82
42 -125 86 -163 167 -41 86 -26 170 46 257 51 61 75 110 97 200 34 143 -6 284
-112 391 -30 29 -51 57 -46 61 22 22 1360 680 1382 680 41 0 122 -51 326 -207
71 -54 212 -146 265 -174 116 -60 255 -92 362 -83 92 7 135 25 182 74 31 33
38 49 43 94 7 66 -14 115 -82 195 -60 70 -97 135 -93 162 2 12 16 31 31 43 26
19 46 21 220 26 150 5 199 9 222 22 45 24 74 55 81 86 3 15 7 33 10 40 8 27
-29 109 -69 150 -48 50 -169 142 -209 160 -56 24 -50 28 272 180 47 22 218
105 380 185 339 166 599 293 820 400 85 41 259 125 385 187 127 62 298 145
380 185 83 40 231 112 330 160 99 48 254 123 345 167 91 43 194 95 230 113 36
19 69 33 75 32 5 -2 11 -21 13 -42z m-3136 -345 c-2 -63 -6 -117 -8 -120 -3
-2 -16 8 -29 23 -22 23 -25 35 -25 99 0 79 18 122 48 116 15 -3 17 -18 14
-118z m1650 4 c-2 -10 -11 -35 -20 -54 -18 -36 -45 -53 -213 -128 -41 -19 -96
-44 -124 -57 -71 -33 -224 -104 -260 -120 -16 -8 -88 -40 -160 -71 -603 -262
-719 -308 -852 -334 -58 -12 -65 -11 -110 11 -26 12 -57 24 -68 26 -34 6 -81
35 -165 102 -75 60 -80 66 -80 102 0 44 2 46 25 23 13 -14 14 -19 3 -25 -9 -6
-6 -9 11 -9 21 0 121 -64 129 -82 2 -5 14 -8 27 -8 12 0 28 -6 34 -14 19 -22
67 -27 169 -15 134 14 268 59 557 187 50 22 144 63 210 91 66 29 148 66 181
82 34 16 64 29 67 29 4 0 59 25 242 110 121 56 205 94 245 110 25 10 65 29 90
43 51 28 66 28 62 1z m5850 -384 c11 -108 32 -162 86 -218 37 -39 59 -53 103
-66 32 -9 70 -15 85 -15 49 2 147 38 177 65 28 24 29 26 26 119 -2 52 0 97 3
101 4 3 60 -41 125 -98 66 -56 144 -123 175 -148 75 -61 98 -96 98 -151 0 -35
-7 -52 -31 -82 -31 -38 -31 -38 -57 -21 -74 49 -86 77 -37 86 31 5 27 50 -6
62 -21 7 -40 3 -94 -22 -37 -18 -81 -43 -98 -58 -16 -14 -62 -41 -100 -60 -85
-43 -111 -41 -182 16 -27 21 -62 46 -76 54 -25 14 -51 33 -235 174 -38 29 -95
78 -126 109 -90 86 -78 119 69 200 82 44 87 42 95 -47z m3965 -502 c-3 -8 -6
-5 -6 6 -1 11 2 17 5 13 3 -3 4 -12 1 -19z m-11731 -344 c114 -39 204 -88 273
-150 110 -100 130 -168 61 -209 -31 -17 -58 -21 -220 -26 -170 -5 -188 -7
-227 -29 -71 -39 -92 -115 -53 -194 11 -23 49 -76 84 -118 71 -85 87 -128 66
-179 -33 -79 -194 -97 -367 -40 -108 35 -215 99 -401 240 -73 55 -160 116
-193 137 -61 37 -142 67 -153 57 -3 -3 -8 1 -12 10 -6 17 26 69 61 99 21 18
83 57 175 111 46 27 252 125 416 197 59 27 222 90 269 105 65 21 136 17 221
-11z m4445 -110 c20 -21 25 -39 30 -113 4 -58 12 -96 24 -114 20 -31 27 -18
-100 -202 -44 -65 -91 -134 -105 -154 -14 -20 -40 -56 -58 -79 -32 -39 -37
-42 -84 -42 -42 0 -54 -5 -80 -30 -31 -32 -33 -48 -13 -145 5 -24 0 -37 -25
-65 -16 -19 -33 -43 -36 -52 -5 -18 -38 -24 -68 -12 -61 24 -104 229 -75 362
21 99 122 176 203 154 42 -12 66 4 66 42 0 24 41 91 69 114 11 8 36 11 78 9
76 -6 93 7 75 56 -21 60 -33 187 -22 228 19 68 77 89 121 43z m1452 -79 c117
-30 224 -110 366 -273 30 -34 62 -62 72 -62 9 0 33 19 52 43 39 48 131 101
190 110 91 14 180 -41 302 -186 141 -168 201 -227 255 -249 14 -6 39 -17 57
-24 17 -8 38 -14 47 -14 40 0 171 -82 229 -143 80 -83 136 -251 122 -360 -6
-52 5 -77 34 -77 9 0 50 32 90 70 93 88 164 125 221 115 49 -8 70 -35 70 -89
0 -34 -6 -45 -47 -83 -54 -50 -95 -70 -156 -77 -55 -7 -84 -39 -64 -70 11 -15
33 -23 88 -32 94 -15 101 -18 122 -53 16 -27 16 -30 -1 -50 -20 -25 -103 -40
-189 -35 -37 2 -57 -2 -68 -12 -19 -19 -19 -18 5 -87 40 -114 14 -339 -65
-555 -41 -115 -175 -332 -205 -332 -4 0 -21 -14 -38 -31 -35 -35 -51 -46 -138
-88 -170 -83 -350 -82 -531 2 -55 25 -123 77 -123 93 0 5 10 30 22 55 35 70
36 175 4 269 -43 124 -97 192 -184 236 -88 45 -187 35 -255 -24 -9 -8 -19 -13
-22 -10 -9 9 -9 141 0 182 10 46 -1 56 -62 56 -55 0 -92 18 -100 47 -8 33 10
62 58 96 82 57 71 71 -161 196 -73 40 -100 58 -223 149 -170 127 -257 245
-257 351 0 45 5 56 36 91 20 22 42 40 49 40 6 0 19 8 29 19 20 22 15 39 -35
106 -80 110 -114 215 -107 331 5 93 35 149 124 234 132 126 245 162 387 125z
m-1116 -26 c64 -24 108 -97 67 -113 -48 -18 -154 80 -121 113 14 14 19 14 54
0z m-9 -163 c17 -9 32 -22 32 -29 0 -10 -104 -160 -170 -247 -11 -14 -51 -71
-89 -126 -167 -239 -166 -238 -286 -254 -33 -5 -75 -12 -92 -15 -44 -10 -42 1
12 77 25 35 53 76 63 91 9 16 31 48 48 70 17 23 64 92 106 152 110 162 220
319 228 325 4 3 13 16 19 29 l13 23 41 -40 c23 -22 57 -47 75 -56z m130 -234
c48 -32 104 -69 125 -81 20 -12 37 -26 37 -30 0 -4 -28 -23 -62 -43 -171 -98
-305 -303 -316 -483 -2 -44 -8 -82 -13 -85 -8 -5 -87 1 -179 15 -31 5 -70 1
-125 -13 -136 -34 -211 -44 -253 -32 -96 25 -126 135 -54 203 23 22 50 31 161
52 188 37 210 48 268 137 53 79 59 88 154 223 35 50 66 92 69 95 3 3 21 26 40
53 18 26 39 47 47 47 7 0 52 -26 101 -58z m397 -253 c74 -45 135 -86 135 -91
0 -5 -13 -20 -29 -34 -71 -60 -79 -184 -19 -297 19 -35 66 -96 111 -141 42
-44 77 -87 77 -97 0 -10 -7 -44 -15 -75 -8 -32 -18 -106 -21 -166 -4 -59 -10
-108 -13 -108 -3 0 -36 19 -72 43 -37 23 -92 58 -124 77 -31 19 -69 45 -84 56
-14 12 -82 59 -151 105 -291 196 -317 217 -330 264 -22 79 11 210 80 319 70
111 220 221 308 225 7 1 73 -36 147 -80z m-1157 -36 c-5 -25 -28 -28 -28 -4 0
12 6 21 16 21 9 0 14 -7 12 -17z m-174 -427 c5 -20 28 -44 94 -97 19 -15 16
-21 -35 -76 -39 -42 -59 -55 -107 -68 -44 -12 -61 -13 -66 -5 -8 13 -3 87 11
141 9 34 74 129 89 129 4 0 11 -11 14 -24z m-4238 -130 c75 -49 83 -101 24
-157 -88 -84 -248 -78 -324 11 -22 27 -26 40 -22 64 8 39 41 74 91 98 61 29
176 21 231 -16z m-1005 -68 c23 -29 48 -57 54 -63 6 -5 17 -19 25 -31 22 -31
177 -216 283 -338 29 -33 58 -69 66 -80 8 -12 19 -25 25 -31 6 -5 44 -50 84
-98 74 -90 113 -137 237 -281 39 -45 86 -102 105 -126 19 -23 62 -75 95 -115
246 -294 362 -432 375 -446 8 -9 29 -34 47 -55 17 -22 79 -95 137 -164 59 -69
142 -168 185 -220 43 -52 88 -106 100 -120 46 -52 65 -75 110 -130 142 -174
176 -215 184 -219 5 -2 17 -16 26 -32 10 -16 39 -53 65 -82 55 -61 347 -405
391 -460 83 -105 245 -299 256 -307 3 -3 28 -32 55 -65 26 -33 58 -71 70 -85
64 -73 102 -124 98 -132 -3 -4 -18 -8 -33 -8 -76 0 -253 -62 -336 -118 -64
-43 -77 -54 -135 -112 -68 -68 -82 -87 -111 -142 -37 -71 -39 -77 -39 -108 0
-31 -12 -39 -30 -18 -5 7 -30 38 -54 68 -25 30 -127 156 -227 280 -101 124
-199 245 -219 270 -20 25 -63 78 -96 118 -32 41 -70 88 -84 106 -14 18 -88
110 -165 205 -77 95 -169 209 -204 254 -35 45 -93 118 -130 162 -36 44 -86
106 -111 138 -25 32 -67 86 -95 119 -27 34 -89 111 -138 172 -128 163 -130
165 -152 189 -11 12 -41 49 -67 82 -25 33 -54 69 -65 80 -10 11 -26 32 -36 48
-10 15 -44 58 -77 97 -33 38 -60 72 -60 75 0 4 -18 27 -40 53 -96 114 -200
244 -200 250 0 4 -17 25 -38 46 -20 22 -41 48 -47 57 -5 9 -39 54 -75 99 -340
431 -381 486 -410 546 -46 92 -50 170 -16 274 15 45 48 114 74 153 52 81 258
297 284 297 9 0 35 -24 59 -52z m7049 -114 c47 -30 113 -73 148 -95 34 -21 62
-43 62 -48 0 -5 -12 -24 -27 -41 -18 -21 -28 -47 -31 -79 -4 -45 -2 -51 35
-89 25 -26 49 -42 64 -42 44 0 53 -14 50 -78 -4 -97 17 -216 41 -231 17 -11
25 -6 76 47 74 76 130 95 195 66 57 -26 114 -85 146 -153 23 -49 26 -69 26
-156 0 -89 -3 -104 -24 -133 -38 -54 -97 -85 -162 -86 -49 -1 -62 4 -110 37
-60 41 -89 41 -89 2 0 -45 119 -114 196 -115 16 0 58 10 93 21 l63 21 31 -29
c64 -61 214 -128 330 -147 20 -4 37 -11 37 -15 0 -11 -111 -60 -174 -78 -52
-14 -227 -19 -294 -8 -212 36 -432 194 -610 440 -34 46 -116 201 -132 250 -4
11 -12 31 -18 45 -22 55 -33 90 -59 195 -23 95 -27 131 -27 265 0 133 15 286
31 313 3 5 15 1 26 -7 12 -9 60 -41 107 -72z m6310 -505 c0 -5 -4 -9 -10 -9
-5 0 -10 7 -10 16 0 8 5 12 10 9 6 -3 10 -10 10 -16z m-4447 -600 c55 -56 61
-67 69 -118 7 -52 5 -61 -27 -126 -19 -38 -35 -76 -35 -83 0 -7 29 -43 64 -80
35 -37 112 -123 172 -192 60 -69 114 -129 120 -135 7 -5 42 -50 78 -98 36 -48
73 -95 82 -104 9 -9 28 -34 42 -56 47 -69 56 -82 88 -123 72 -90 231 -344 301
-479 46 -90 119 -281 128 -335 3 -19 2 -40 -2 -45 -24 -32 -420 -335 -438
-335 -3 0 -31 -17 -62 -37 -32 -21 -67 -43 -78 -49 -11 -6 -83 -47 -160 -91
-77 -44 -192 -108 -255 -143 -63 -35 -141 -80 -172 -102 -31 -21 -59 -38 -62
-38 -10 0 -122 -79 -140 -99 -11 -12 -35 -31 -54 -43 -30 -19 -43 -20 -121
-14 -225 17 -442 125 -633 316 -76 77 -98 105 -103 134 -4 20 -4 112 1 204 15
274 11 430 -11 477 -10 22 -21 67 -24 100 -5 52 -9 60 -28 63 -18 3 -32 -12
-76 -81 -127 -197 -197 -274 -365 -401 -103 -78 -309 -169 -457 -202 -98 -22
-319 -22 -405 1 -293 76 -479 213 -586 430 -56 114 -74 184 -80 310 -20 371
273 756 801 1058 116 67 327 169 359 174 45 7 92 -15 156 -74 130 -120 185
-342 118 -481 -21 -45 -71 -82 -223 -169 -271 -155 -451 -326 -447 -423 l2
-39 -63 -3 c-59 -3 -62 -4 -65 -29 -4 -35 11 -40 130 -46 154 -9 305 36 439
130 78 55 210 190 267 274 47 70 146 247 157 283 19 61 83 178 127 233 26 33
48 66 48 73 0 7 -13 25 -28 41 -78 77 -87 174 -23 242 l29 31 49 -24 c135 -67
323 -95 483 -71 98 15 228 68 305 125 28 21 66 40 86 43 33 5 144 44 195 69
42 20 179 129 208 166 29 35 46 51 55 52 2 0 31 -28 64 -61z m-1596 -195 c15
-14 40 -33 55 -42 33 -19 36 -42 8 -67 -61 -55 -60 -200 3 -287 l20 -27 -30
-48 c-17 -26 -47 -78 -67 -115 -37 -67 -49 -81 -76 -90 -14 -5 -16 9 -16 101
0 85 -4 120 -23 174 -29 87 -86 171 -162 242 -34 31 -59 61 -56 69 3 7 34 23
69 36 109 40 222 79 235 79 7 1 25 -11 40 -25z m3343 -314 c19 -17 38 -30 43
-30 5 0 18 -11 29 -25 10 -13 35 -32 54 -41 19 -9 34 -23 34 -30 0 -8 6 -14
13 -14 17 0 97 -56 90 -63 -3 -4 2 -9 11 -13 17 -6 22 -39 8 -48 -5 -3 -7 -51
-5 -106 2 -56 -1 -100 -5 -98 -12 4 -64 45 -115 90 -23 21 -47 38 -52 38 -6 0
-24 12 -41 28 -17 15 -51 44 -75 64 l-46 37 -2 110 c-3 144 0 150 59 101z
m1330 -37 c0 7 5 4 11 -6 6 -9 14 -15 20 -12 5 4 9 -2 9 -11 0 -10 3 -15 6
-11 4 3 23 -11 43 -31 20 -20 52 -48 71 -61 19 -13 51 -43 70 -67 19 -23 40
-43 46 -43 24 -2 72 -34 129 -86 33 -30 135 -119 227 -198 147 -125 187 -167
161 -167 -5 0 -116 -16 -248 -36 -132 -20 -263 -38 -291 -41 l-51 -5 -82 167
c-44 92 -81 172 -81 177 0 9 -7 25 -66 155 -12 28 -28 54 -33 58 -6 3 -11 17
-11 30 0 13 -3 25 -7 27 -5 2 -20 26 -34 55 l-26 51 41 29 c33 24 47 28 69 22
18 -5 27 -4 27 4z m-11390 -314 c36 -47 91 -116 123 -154 31 -38 57 -75 57
-82 0 -41 -205 -42 -307 -1 -185 75 -202 202 -40 297 76 45 90 40 167 -60z
m6541 -213 c-23 -29 -41 -58 -41 -64 0 -7 -11 -22 -25 -34 -14 -12 -25 -26
-25 -32 0 -10 -71 -81 -190 -190 -47 -43 -85 -66 -110 -66 -11 0 -20 -4 -20
-9 0 -12 -81 -38 -138 -44 -32 -4 -45 -1 -49 9 -7 20 14 68 41 91 13 11 29 29
37 39 19 26 102 93 167 135 28 18 52 37 52 41 0 5 6 8 13 8 7 0 44 21 82 47
79 53 153 93 174 93 7 0 25 12 39 27 43 47 38 7 -7 -51z m-1491 -718 c41 -117
104 -227 176 -306 32 -36 54 -68 51 -76 -3 -8 -36 -32 -74 -54 -37 -22 -142
-86 -233 -142 -91 -57 -212 -132 -270 -168 -58 -35 -167 -103 -243 -151 -75
-47 -154 -94 -175 -105 -20 -10 -38 -22 -40 -27 -2 -5 -8 -9 -14 -9 -5 0 -21
-9 -35 -20 -38 -30 -50 -25 -57 22 -13 81 -76 157 -171 210 -46 25 -178 57
-266 64 -44 4 -79 10 -78 13 0 5 295 184 428 261 36 21 97 57 156 94 78 48
217 132 289 174 22 13 66 41 97 63 32 21 60 39 63 39 3 0 37 20 76 45 39 25
73 45 77 45 3 0 14 6 22 14 9 7 36 24 61 37 25 13 60 34 79 47 18 12 37 22 41
22 4 0 22 -42 40 -92z"/>
<path d="M9853 8393 c9 -2 23 -2 30 0 6 3 -1 5 -18 5 -16 0 -22 -2 -12 -5z"/>
<path d="M12195 6770 c-3 -5 3 -10 15 -10 12 0 18 5 15 10 -3 6 -10 10 -15 10
-5 0 -12 -4 -15 -10z"/>
<path d="M12538 6603 c7 -3 16 -2 19 1 4 3 -2 6 -13 5 -11 0 -14 -3 -6 -6z"/>
<path d="M4612 7485 c0 -16 2 -22 5 -12 2 9 2 23 0 30 -3 6 -5 -1 -5 -18z"/>
<path d="M9533 3568 c-56 -70 -62 -212 -10 -239 39 -21 47 -5 41 75 -6 66 -4
78 16 110 18 30 20 39 10 51 -15 18 -44 19 -57 3z"/>
<path d="M4338 8934 c-11 -12 -21 -13 -34 -6 -42 21 -57 -9 -26 -48 14 -18 25
-21 45 -16 24 6 57 49 57 76 0 15 -24 12 -42 -6z"/>
<path d="M9678 8843 c6 -2 18 -2 25 0 6 3 1 5 -13 5 -14 0 -19 -2 -12 -5z"/>
<path d="M3836 8809 c-13 -16 -21 -18 -29 -10 -16 16 -37 14 -44 -4 -7 -19 24
-55 47 -55 25 0 60 38 60 65 0 31 -10 32 -34 4z"/>
<path d="M4116 8764 c-23 -20 -37 -25 -70 -22 -33 2 -41 0 -44 -16 -5 -24 14
-36 60 -36 28 0 45 8 72 34 59 55 42 92 -18 40z"/>
<path d="M11448 8663 c7 -3 16 -2 19 1 4 3 -2 6 -13 5 -11 0 -14 -3 -6 -6z"/>
<path d="M2173 7470 c0 -25 2 -35 4 -22 2 12 2 32 0 45 -2 12 -4 2 -4 -23z"/>
<path d="M15082 7055 c0 -16 2 -22 5 -12 2 9 2 23 0 30 -3 6 -5 -1 -5 -18z"/>
<path d="M14980 6920 c0 -5 5 -10 10 -10 6 0 10 5 10 10 0 6 -4 10 -10 10 -5
0 -10 -4 -10 -10z"/>
<path d="M15200 6080 c0 -5 5 -10 10 -10 6 0 10 5 10 10 0 6 -4 10 -10 10 -5
0 -10 -4 -10 -10z"/>
<path d="M14987 4663 c-4 -3 -7 -11 -7 -17 0 -6 5 -5 12 2 6 6 9 14 7 17 -3 3
-9 2 -12 -2z"/>
<path d="M14080 4010 c0 -5 7 -10 15 -10 8 0 15 5 15 10 0 6 -7 10 -15 10 -8
0 -15 -4 -15 -10z"/>
<path d="M8551 3984 c-63 -52 -29 -144 53 -144 84 0 111 83 46 143 -38 34 -60
34 -99 1z"/>
<path d="M14077 3276 c-4 -10 -1 -13 9 -9 15 6 19 23 5 23 -5 0 -11 -7 -14
-14z"/>
<path d="M2345 2480 c-3 -5 -1 -10 4 -10 6 0 11 5 11 10 0 6 -2 10 -4 10 -3 0
-8 -4 -11 -10z"/>
<path d="M2250 1221 c-114 -21 -249 -111 -291 -193 -21 -41 -28 -182 -9 -193
6 -3 10 -13 10 -21 0 -28 94 -115 157 -146 92 -44 156 -58 271 -58 200 0 352
74 421 205 25 48 28 145 6 198 -31 75 -118 147 -227 189 -59 22 -257 33 -338
19z m333 -91 c106 -42 186 -136 187 -217 0 -76 -88 -167 -198 -206 -39 -13
-93 -21 -168 -24 -103 -5 -117 -3 -197 25 -137 47 -197 112 -197 213 1 80 36
131 123 178 96 52 139 61 272 58 97 -3 131 -8 178 -27z"/>
<path d="M15340 677 c-25 -13 -82 -47 -128 -75 -46 -29 -86 -52 -90 -52 -3 0
-13 -6 -21 -14 -9 -7 -47 -31 -86 -51 -38 -21 -86 -48 -105 -60 -42 -26 -250
-129 -335 -166 -81 -36 -216 -78 -271 -86 -35 -5 -45 -10 -50 -29 -3 -12 -3
-28 1 -35 23 -36 303 50 510 158 94 48 190 99 225 120 37 21 154 91 181 108
37 22 225 131 244 140 12 6 20 21 20 35 0 34 -36 36 -95 7z"/>
<path d="M3900 560 c0 -5 5 -10 10 -10 6 0 10 5 10 10 0 6 -4 10 -10 10 -5 0
-10 -4 -10 -10z"/>
<path d="M15755 471 c-23 -46 -113 -129 -185 -170 -67 -40 -96 -53 -190 -90
-30 -12 -64 -26 -75 -31 -11 -5 -54 -20 -96 -34 -88 -27 -237 -90 -289 -120
l-35 -21 69 -3 c58 -3 80 2 142 28 41 17 113 44 162 59 204 68 372 149 460
226 28 23 112 133 112 145 0 14 -30 40 -45 40 -8 0 -21 -13 -30 -29z"/>
</g>
</svg>
