<?xml version="1.0" encoding="UTF-8"?>
<svg width="34" height="32" viewBox="0 0 34 32" fill="none" xmlns="http://www.w3.org/2000/svg">
<path fill-rule="evenodd" clip-rule="evenodd" d="M24.0528 3.69915C24.5958 3.59868 24.9546 3.07699 24.8542 2.53392C24.7625 2.03834 24.5568 1.56934 24.2501 1.16984C23.9432 0.770024 23.5434 0.450729 23.082 0.246848C22.6201 0.0427524 22.1146 -0.0374726 21.6121 0.0162345C21.1098 0.0699245 20.6327 0.255017 20.2229 0.549201C19.8135 0.843057 19.485 1.23553 19.261 1.68693C19.0374 2.13747 18.923 2.63614 18.9247 3.13942V3.13761H19.9247L18.9247 3.14154L18.9247 3.13942V5.26628C18.9247 5.81857 19.3724 6.26628 19.9247 6.26628C20.477 6.26628 20.9247 5.81857 20.9247 5.26628V3.13761V3.13368C20.9239 2.93628 20.9689 2.74444 21.0526 2.57594C21.1361 2.40766 21.2536 2.27124 21.3891 2.174C21.5241 2.0771 21.6739 2.02103 21.8247 2.00491C21.9753 1.98881 22.129 2.0123 22.2737 2.07622C22.4188 2.14036 22.5542 2.24508 22.6636 2.38759C22.7732 2.53041 22.8519 2.70524 22.8875 2.89775C22.988 3.44082 23.5097 3.79962 24.0528 3.69915ZM8.02314 13.1638C7.92267 13.7068 8.28147 14.2285 8.82454 14.329C9.36761 14.4295 9.8893 14.0707 9.98977 13.5276C10.0254 13.3351 10.1041 13.1603 10.2137 13.0174C10.3231 12.8749 10.4585 12.7702 10.6036 12.7061C10.7483 12.6421 10.902 12.6187 11.0526 12.6348C11.2034 12.6509 11.3532 12.7069 11.4882 12.8038C11.6237 12.9011 11.7412 13.0375 11.8247 13.2058C11.9084 13.3743 11.9534 13.5661 11.9526 13.7635L11.9526 13.7675V30.7968C11.9526 31.3491 12.4003 31.7968 12.9526 31.7968C13.5049 31.7968 13.9526 31.3491 13.9526 30.7968V13.7691V13.7675H12.9526L13.9526 13.7714L13.9526 13.7691C13.9543 13.2659 13.8398 12.7673 13.6163 12.3168C13.3923 11.8654 13.0638 11.4729 12.6544 11.179C12.2445 10.8849 11.7675 10.6998 11.2652 10.6461C10.7627 10.5924 10.2572 10.6726 9.7953 10.8767C9.33388 11.0806 8.93406 11.3999 8.62718 11.7997C8.32054 12.1992 8.11482 12.6682 8.02314 13.1638ZM13.0254 5.22324C12.9491 4.95344 12.9359 4.66616 12.9877 4.38841C13.0396 4.11074 13.1537 3.85627 13.315 3.64629C13.4761 3.43661 13.6778 3.27925 13.8981 3.18165C14.118 3.08426 14.3534 3.04752 14.5851 3.07175C14.817 3.09599 15.0447 3.18129 15.2476 3.32589C15.4511 3.47081 15.6246 3.67195 15.7472 3.91632C15.8699 4.16075 15.9361 4.43761 15.9366 4.72175V30.7968C15.9366 31.3491 16.3843 31.7968 16.9366 31.7968C17.4889 31.7968 17.9366 31.3491 17.9366 30.7968V4.7206L17.9366 4.71893C17.9356 4.12879 17.7987 3.54523 17.5347 3.01919C17.2706 2.49293 16.8856 2.03716 16.4081 1.697C15.9302 1.35652 15.3757 1.1435 14.7931 1.08259C14.2104 1.02166 13.6242 1.11555 13.0881 1.35302C12.5525 1.59028 12.0871 1.96168 11.729 2.42791C11.3711 2.89384 11.1299 3.44158 11.0217 4.02149C10.9135 4.60131 10.9405 5.20055 11.101 5.76779C11.2615 6.33515 11.5521 6.8577 11.9527 7.28683C12.3295 7.69057 12.9623 7.71235 13.3661 7.3355C13.7698 6.95864 13.7916 6.32585 13.4147 5.92212C13.2374 5.73213 13.1017 5.49292 13.0254 5.22324ZM20.257 9.12376C20.0334 9.57431 19.919 10.073 19.9206 10.5763V30.7968C19.9206 31.3491 20.3684 31.7968 20.9206 31.7968C21.4729 31.7968 21.9206 31.3491 21.9206 30.7968V10.5745L21.9206 10.5705C21.9199 10.3731 21.9649 10.1813 22.0485 10.0128C22.132 9.84449 22.2496 9.70807 22.385 9.61084C22.5201 9.51394 22.6698 9.45787 22.8207 9.44175C22.9713 9.42565 23.125 9.44914 23.2696 9.51306C23.4148 9.5772 23.5502 9.68192 23.6595 9.82443C23.7692 9.96725 23.8479 10.1421 23.8835 10.3346C23.9191 10.5272 23.9095 10.7263 23.8562 10.9127C23.7043 11.4437 24.0117 11.9972 24.5427 12.1491C25.0737 12.301 25.6273 11.9936 25.7791 11.4626C25.9176 10.9782 25.9418 10.4663 25.8501 9.97076C25.7584 9.47517 25.5527 9.00618 25.2461 8.60668C24.9392 8.20686 24.5394 7.88757 24.078 7.68369C23.6161 7.47959 23.1106 7.39937 22.6081 7.45307C22.1058 7.50676 21.6287 7.69186 21.2188 7.98604C20.8094 8.27989 20.481 8.67237 20.257 9.12376ZM4.00084 19.5633C3.90037 20.1064 4.25917 20.6281 4.80224 20.7285C5.34531 20.829 5.867 20.4702 5.96747 19.9271C6.00308 19.7346 6.08179 19.5598 6.19141 19.417C6.3008 19.2745 6.43617 19.1697 6.58133 19.1056C6.726 19.0417 6.87968 19.0182 7.03031 19.0343C7.18111 19.0504 7.33091 19.1065 7.46592 19.2034C7.60139 19.3006 7.71894 19.437 7.80244 19.6053C7.88606 19.7738 7.93111 19.9657 7.93033 20.1631H7.93032V20.167V30.8103C7.93032 31.3626 8.37804 31.8103 8.93032 31.8103C9.48261 31.8103 9.93032 31.3626 9.93032 30.8103V20.1688V20.167H8.93032L9.93032 20.1709L9.93032 20.1688C9.93198 19.6655 9.81757 19.1668 9.594 18.7163C9.37 18.2649 9.04153 17.8724 8.63212 17.5786C8.22225 17.2844 7.74518 17.0993 7.24286 17.0456C6.74037 16.9919 6.23491 17.0721 5.773 17.2762C5.31159 17.4801 4.91176 17.7994 4.60488 18.1992C4.29824 18.5987 4.09252 19.0677 4.00084 19.5633ZM29.0324 18.5999C29.5754 18.4994 29.9342 17.9777 29.8338 17.4346C29.7421 16.939 29.5364 16.47 29.2297 16.0705C28.9228 15.6707 28.523 15.3514 28.0616 15.1475C27.5997 14.9435 27.0942 14.8632 26.5917 14.9169C26.0894 14.9706 25.6123 15.1557 25.2025 15.4499C24.7931 15.7438 24.4646 16.1362 24.2406 16.5876C24.017 17.0382 23.9026 17.5368 23.9043 18.0401V18.0383H24.9041L23.9043 18.0422L23.9043 18.0401V30.8103C23.9043 31.3626 24.352 31.8103 24.9043 31.8103C25.4566 31.8103 25.9043 31.3626 25.9043 30.8103V18.0383V18.0344C25.9035 17.837 25.9485 17.6451 26.0321 17.4766C26.1157 17.3084 26.2332 17.1719 26.3687 17.0747C26.5037 16.9778 26.6535 16.9217 26.8043 16.9056C26.9549 16.8895 27.1086 16.913 27.2533 16.9769C27.3984 17.0411 27.5338 17.1458 27.6432 17.2883C27.7528 17.4311 27.8315 17.6059 27.8671 17.7985C27.9676 18.3415 28.4893 18.7003 29.0324 18.5999ZM33.8177 23.8206C33.9182 24.3637 33.5594 24.8854 33.0163 24.9859C32.4733 25.0863 31.9516 24.7275 31.8511 24.1845C31.8155 23.992 31.7368 23.8171 31.6272 23.6743C31.5178 23.5318 31.3824 23.4271 31.2372 23.3629C31.0926 23.299 30.9389 23.2755 30.7883 23.2916C30.6375 23.3077 30.4877 23.3638 30.3526 23.4607C30.2172 23.5579 30.0996 23.6944 30.0161 23.8627C29.9325 24.0312 29.8875 24.223 29.8882 24.4204V24.4243V30.8103C29.8882 31.3626 29.4405 31.8103 28.8882 31.8103C28.336 31.8103 27.8882 31.3626 27.8882 30.8103V24.4261L27.8883 24.4283L28.8882 24.4243H27.8882V24.4261C27.8866 23.9229 28.001 23.4242 28.2246 22.9736C28.4486 22.5222 28.777 22.1298 29.1864 21.8359C29.5963 21.5417 30.0734 21.3566 30.5757 21.3029C31.0782 21.2492 31.5837 21.3295 32.0456 21.5336C32.507 21.7374 32.9068 22.0567 33.2137 22.4566C33.5203 22.8561 33.726 23.3251 33.8177 23.8206ZM0.0168626 25.9493C-0.0836061 26.4924 0.275193 27.0141 0.818262 27.1145C1.36133 27.215 1.88302 26.8562 1.98349 26.3131C2.01911 26.1206 2.09781 25.9458 2.20744 25.803C2.31682 25.6605 2.4522 25.5557 2.59735 25.4916C2.74202 25.4277 2.8957 25.4042 3.04633 25.4203C3.19714 25.4364 3.34693 25.4925 3.48194 25.5894C3.61741 25.6866 3.73496 25.823 3.81847 25.9913C3.90208 26.1598 3.94713 26.3517 3.94635 26.5491H3.94635V26.553L3.94635 30.8103C3.94635 31.3626 4.39406 31.8103 4.94635 31.8103C5.49863 31.8103 5.94635 31.3626 5.94635 30.8103V26.5548V26.553H4.94635L5.94634 26.5569L5.94635 26.5548C5.948 26.0515 5.83359 25.5529 5.61002 25.1023C5.38602 24.6509 5.05756 24.2584 4.64814 23.9646C4.23827 23.6704 3.76121 23.4853 3.25889 23.4316C2.75639 23.3779 2.25093 23.4581 1.78903 23.6622C1.32761 23.8661 0.927782 24.1854 0.620903 24.5852C0.314264 24.9847 0.108546 25.4537 0.0168626 25.9493Z" fill="white"/>
</svg>
