<?xml version="1.0" encoding="UTF-8"?>
<svg width="30" height="31" viewBox="0 0 30 31" fill="none" xmlns="http://www.w3.org/2000/svg">
<path d="M29.9774 13.6297L28.9368 2.63984C28.8841 2.07031 28.4305 1.62031 27.861 1.56406L16.8712 0.523438H16.8571C16.7446 0.523438 16.6567 0.558594 16.5899 0.625391L0.12625 17.0891C0.0936587 17.1216 0.067802 17.1602 0.0501601 17.2027C0.0325182 17.2453 0.0234375 17.2909 0.0234375 17.3369C0.0234375 17.383 0.0325182 17.4285 0.0501601 17.4711C0.067802 17.5136 0.0936587 17.5522 0.12625 17.5848L12.9161 30.3746C12.9829 30.4414 13.0708 30.4766 13.1657 30.4766C13.2606 30.4766 13.3485 30.4414 13.4153 30.3746L29.879 13.9109C29.9493 13.8371 29.9845 13.7352 29.9774 13.6297ZM13.1622 26.8449L3.65594 17.3387L17.7079 3.28672L26.3915 4.10938L27.2141 12.793L13.1622 26.8449ZM20.9071 6.5C19.202 6.5 17.8134 7.88867 17.8134 9.59375C17.8134 11.2988 19.202 12.6875 20.9071 12.6875C22.6122 12.6875 24.0009 11.2988 24.0009 9.59375C24.0009 7.88867 22.6122 6.5 20.9071 6.5ZM20.9071 10.7188C20.2848 10.7188 19.7821 10.216 19.7821 9.59375C19.7821 8.97148 20.2848 8.46875 20.9071 8.46875C21.5294 8.46875 22.0321 8.97148 22.0321 9.59375C22.0321 10.216 21.5294 10.7188 20.9071 10.7188Z" fill="black"/>
</svg>