<svg width="49" height="50" viewBox="0 0 49 50" fill="none" xmlns="http://www.w3.org/2000/svg">
<path d="M42.8243 24.9694C42.3602 24.9694 41.9151 24.785 41.5869 24.4568C41.2587 24.1286 41.0743 23.6835 41.0743 23.2194V18.1794C41.14 17.1877 40.8125 16.21 40.1627 15.458C39.5129 14.706 38.593 14.2402 37.6023 14.1614H7.32031C6.85618 14.1614 6.41106 13.977 6.08288 13.6488C5.75469 13.3206 5.57031 12.8755 5.57031 12.4114C5.57031 11.9472 5.75469 11.5021 6.08288 11.1739C6.41106 10.8458 6.85618 10.6614 7.32031 10.6614H37.6023C39.5248 10.7307 41.3413 11.5596 42.6535 12.9663C43.9658 14.373 44.6666 16.2427 44.6023 18.1654V23.2054C44.6042 23.4387 44.5594 23.6701 44.4706 23.8859C44.3817 24.1017 44.2506 24.2976 44.0849 24.4619C43.9192 24.6263 43.7224 24.7559 43.5059 24.843C43.2894 24.9302 43.0577 24.9731 42.8243 24.9694Z" fill="#7B61FF"/>
<path d="M37.6025 47.3133H7.32047C5.39799 47.244 3.58147 46.4151 2.26924 45.0084C0.957022 43.6017 0.256203 41.732 0.320466 39.8093V8.22534C0.320466 7.76121 0.504841 7.31609 0.833029 6.9879C1.16122 6.65972 1.60634 6.47534 2.07047 6.47534C2.5346 6.47534 2.97971 6.65972 3.3079 6.9879C3.63609 7.31609 3.82047 7.76121 3.82047 8.22534V39.8093C3.75489 40.7996 4.08282 41.7757 4.73297 42.5254C5.38312 43.2752 6.30293 43.738 7.29247 43.8133H37.6025C38.592 43.738 39.5118 43.2752 40.162 42.5254C40.8121 41.7757 41.14 40.7996 41.0745 39.8093V36.2533C41.0745 35.7892 41.2588 35.3441 41.587 35.0159C41.9152 34.6877 42.3603 34.5033 42.8245 34.5033C43.2886 34.5033 43.7337 34.6877 44.0619 35.0159C44.3901 35.3441 44.5745 35.7892 44.5745 36.2533V39.8093C44.6389 41.7273 43.9419 43.5929 42.6356 44.9988C41.3294 46.4047 39.52 47.2368 37.6025 47.3133V47.3133Z" fill="#7B61FF"/>
<path d="M36.8916 14.1613C36.4322 14.1614 35.9913 13.9808 35.6639 13.6587C35.3365 13.3365 35.1489 12.8986 35.1416 12.4393V8.5613C35.1087 7.73067 34.7489 6.94668 34.1405 6.38023C33.5321 5.81378 32.7244 5.51079 31.8936 5.5373H6.69356C5.97916 5.51078 5.28335 5.76846 4.75854 6.2539C4.23374 6.73935 3.9227 7.413 3.89356 8.1273C3.9227 8.84161 4.23374 9.51525 4.75854 10.0007C5.28335 10.4861 5.97916 10.7438 6.69356 10.7173H22.0936C22.5577 10.7173 23.0028 10.9017 23.331 11.2299C23.6592 11.5581 23.8436 12.0032 23.8436 12.4673C23.8436 12.9314 23.6592 13.3765 23.331 13.7047C23.0028 14.0329 22.5577 14.2173 22.0936 14.2173H6.65156C5.83592 14.2303 5.02572 14.0822 4.26739 13.7816C3.50906 13.4809 2.81748 13.0337 2.23227 12.4654C1.64705 11.897 1.1797 11.2189 0.856981 10.4697C0.53426 9.72048 0.362508 8.91498 0.351562 8.0993C0.381019 6.45681 1.06092 4.8931 2.24204 3.75134C3.42316 2.60959 5.00902 1.98308 6.65156 2.0093H31.8516C32.7284 1.99075 33.6002 2.14581 34.4168 2.46557C35.2335 2.78532 35.9788 3.26345 36.6099 3.87243C37.241 4.48141 37.7454 5.20921 38.0941 6.01393C38.4428 6.81865 38.6288 7.68438 38.6416 8.5613V12.4393C38.6342 12.8986 38.4466 13.3365 38.1192 13.6587C37.7918 13.9808 37.3509 14.1614 36.8916 14.1613ZM43.9616 37.9613H34.2596C32.3645 37.9988 30.532 37.2827 29.1644 35.9703C27.7968 34.6579 27.006 32.8563 26.9656 30.9613V28.4273C27.006 26.5323 27.7968 24.7307 29.1644 23.4183C30.532 22.1059 32.3645 21.3898 34.2596 21.4273H44.0596C44.6718 21.4291 45.2776 21.5515 45.8426 21.7875C46.4075 22.0235 46.9204 22.3685 47.352 22.8027C47.7836 23.2369 48.1255 23.7518 48.358 24.3182C48.5906 24.8845 48.7094 25.4911 48.7076 26.1033V33.3693C48.6855 34.607 48.1734 35.7855 47.2838 36.6463C46.3941 37.5071 45.1994 37.98 43.9616 37.9613ZM34.2596 24.9413C33.2949 24.9033 32.3545 25.2486 31.6436 25.9018C30.9327 26.555 30.5092 27.4629 30.4656 28.4273V31.0313C30.5092 31.9957 30.9327 32.9036 31.6436 33.5568C32.3545 34.21 33.2949 34.5553 34.2596 34.5173H43.9616C44.2673 34.5173 44.5608 34.3968 44.7783 34.1819C44.9958 33.967 45.1199 33.675 45.1236 33.3693V26.1033C45.1152 25.8239 44.9999 25.5583 44.8016 25.3613C44.6966 25.2516 44.5706 25.164 44.4311 25.1039C44.2916 25.0438 44.1415 25.0123 43.9896 25.0113L34.2596 24.9413Z" fill="#7B61FF"/>
<path d="M35.2227 31.4795C36.1892 31.4795 36.9727 30.696 36.9727 29.7295C36.9727 28.763 36.1892 27.9795 35.2227 27.9795C34.2562 27.9795 33.4727 28.763 33.4727 29.7295C33.4727 30.696 34.2562 31.4795 35.2227 31.4795Z" fill="#7B61FF"/>
</svg>
